<?xml version="1.0" encoding="utf-8"?>
<!-- Generator: Adobe Illustrator 16.0.0, SVG Export Plug-In . SVG Version: 6.00 Build 0)  -->
<!DOCTYPE svg PUBLIC "-//W3C//DTD SVG 1.1//EN" "http://www.w3.org/Graphics/SVG/1.1/DTD/svg11.dtd">
<svg version="1.1" id="Layer_1" xmlns="http://www.w3.org/2000/svg" xmlns:xlink="http://www.w3.org/1999/xlink" x="0px" y="0px"
	 width="1300px" height="725.778px" viewBox="0 0 1300 725.778" enable-background="new 0 0 1300 725.778" xml:space="preserve">
<g>
	<path fill="#DDDDDD" d="M653,721.778c0,2.209-1.791,4-4,4h-1c-2.209,0-4-1.791-4-4v-679c0-2.209,1.791-4,4-4h1c2.209,0,4,1.791,4,4
		V721.778z"/>
</g>
<circle fill="#52B3D9" stroke="#FFFFFF" stroke-width="8" stroke-miterlimit="10" cx="648.068" cy="111.099" r="14.102"/>
<circle fill="#BCAF50" stroke="#FFFFFF" stroke-width="8" stroke-miterlimit="10" cx="649.068" cy="497.099" r="14.102"/>
<line fill="none" stroke="#52B3D9" stroke-width="4" stroke-miterlimit="10" stroke-dasharray="18,8" x1="649" y1="110.778" x2="413" y2="110.778"/>
<line fill="none" stroke="#BCAF50" stroke-width="4" stroke-miterlimit="10" stroke-dasharray="18,8" x1="893" y1="496.778" x2="657" y2="496.778"/>
<g>
	<g>
		<path fill="#52B3D9" d="M359.952,109.25c0.48-0.656,0.72-1.32,0.72-1.992c0-0.672-0.256-1.244-0.768-1.716
			c-0.512-0.472-1.16-0.708-1.944-0.708c-1.376,0-2.52,0.705-3.432,2.112l-2.28-1.32c0.735-1.104,1.548-1.936,2.436-2.496
			c0.888-0.56,2.032-0.84,3.432-0.84s2.628,0.444,3.684,1.332s1.584,2.1,1.584,3.636c0,0.864-0.224,1.688-0.672,2.472
			c-0.448,0.784-1.272,1.792-2.472,3.024l-3.936,4.008h7.608v2.712H352.44v-2.4l5.088-5.112
			C358.664,110.81,359.472,109.906,359.952,109.25z"/>
		<path fill="#52B3D9" d="M367.032,105.218v-2.52h9.816v2.208l-4.056,4.536c1.536,0.048,2.736,0.532,3.6,1.452
			c0.864,0.92,1.296,2.02,1.296,3.3c0,1.712-0.58,3.056-1.74,4.032c-1.161,0.976-2.652,1.464-4.476,1.464
			c-1.824,0-3.608-0.583-5.352-1.752l1.2-2.28c1.375,0.96,2.815,1.44,4.32,1.44c0.976,0,1.78-0.228,2.412-0.684
			c0.632-0.456,0.948-1.112,0.948-1.968s-0.352-1.54-1.056-2.052c-0.704-0.512-1.68-0.768-2.928-0.768
			c-0.624,0-1.224,0.088-1.8,0.264v-2.16l3.888-4.512H367.032z"/>
	</g>
	<circle fill="none" stroke="#52B3D9" stroke-width="5" stroke-miterlimit="10" cx="365.051" cy="112.28" r="39.748"/>
	<circle fill="#FFFFFF" stroke="#52B3D9" stroke-width="4" stroke-miterlimit="10" cx="364.273" cy="72.78" r="6.667"/>
</g>
<g>
	<circle fill="none" stroke="#DDDDDD" stroke-width="5" stroke-miterlimit="10" cx="936.4" cy="494.029" r="39.748"/>
	<g>
		<path fill="#BCAF50" d="M930.93,486.967v-2.52h9.816v2.207l-4.057,4.536c1.537,0.048,2.736,0.532,3.601,1.452
			s1.296,2.02,1.296,3.301c0,1.711-0.58,3.056-1.74,4.031c-1.16,0.977-2.652,1.464-4.476,1.464c-1.824,0-3.608-0.583-5.353-1.752
			l1.201-2.28c1.375,0.961,2.814,1.44,4.319,1.44c0.976,0,1.78-0.228,2.412-0.685c0.632-0.455,0.948-1.111,0.948-1.967
			c0-0.856-0.353-1.541-1.057-2.053s-1.68-0.768-2.928-0.768c-0.624,0-1.225,0.088-1.8,0.264v-2.16l3.888-4.512H930.93z"/>
	</g>
	<path fill="none" stroke="#BCAF50" stroke-width="5" stroke-miterlimit="10" d="M904.002,517.064
		c-4.628-6.498-7.35-14.448-7.35-23.035c0-6.584,1.602-12.794,4.435-18.262"/>
	<circle fill="#FFFFFF" stroke="#BCAF50" stroke-width="4" stroke-miterlimit="10" cx="900.622" cy="475.529" r="6.667"/>
</g>
<g opacity="0.3">
	<path d="M690.796,102.605h6.096v16.776h-2.688v-14.256h-3.407V102.605z"/>
	<path d="M705.627,117.029c1.488,0,2.584-0.504,3.288-1.512c0.704-1.008,1.064-2.368,1.08-4.08c-0.4,0.448-0.977,0.868-1.728,1.26
		c-0.753,0.392-1.584,0.588-2.496,0.588c-1.505,0-2.765-0.5-3.78-1.5c-1.017-1-1.524-2.328-1.524-3.984
		c0-1.656,0.548-2.988,1.645-3.996c1.096-1.008,2.476-1.512,4.14-1.512c2.688,0,4.544,1.2,5.568,3.6
		c0.576,1.376,0.864,2.928,0.864,4.656s-0.185,3.168-0.553,4.32c-0.368,1.152-0.872,2.064-1.512,2.736
		c-1.248,1.312-2.78,1.968-4.596,1.968c-1.816,0-3.46-0.568-4.933-1.704l1.416-2.088c0.368,0.32,0.86,0.608,1.477,0.864
		C704.599,116.901,705.147,117.029,705.627,117.029z M706.144,110.789c0.968,0,1.775-0.268,2.424-0.804
		c0.647-0.536,0.972-1.232,0.972-2.088s-0.312-1.592-0.936-2.208c-0.624-0.616-1.404-0.924-2.341-0.924
		c-0.936,0-1.708,0.276-2.315,0.828c-0.608,0.552-0.912,1.26-0.912,2.124c0,0.864,0.276,1.592,0.828,2.184
		C704.415,110.493,705.175,110.789,706.144,110.789z"/>
	<path d="M720.482,117.029c1.488,0,2.584-0.504,3.288-1.512c0.704-1.008,1.064-2.368,1.08-4.08c-0.4,0.448-0.977,0.868-1.728,1.26
		c-0.753,0.392-1.584,0.588-2.496,0.588c-1.505,0-2.765-0.5-3.78-1.5c-1.017-1-1.524-2.328-1.524-3.984
		c0-1.656,0.548-2.988,1.645-3.996c1.096-1.008,2.476-1.512,4.14-1.512c2.688,0,4.544,1.2,5.568,3.6
		c0.576,1.376,0.864,2.928,0.864,4.656s-0.185,3.168-0.553,4.32c-0.368,1.152-0.872,2.064-1.512,2.736
		c-1.248,1.312-2.78,1.968-4.596,1.968c-1.816,0-3.46-0.568-4.933-1.704l1.416-2.088c0.368,0.32,0.86,0.608,1.477,0.864
		C719.454,116.901,720.003,117.029,720.482,117.029z M720.999,110.789c0.968,0,1.775-0.268,2.424-0.804
		c0.647-0.536,0.972-1.232,0.972-2.088s-0.312-1.592-0.936-2.208c-0.624-0.616-1.404-0.924-2.341-0.924
		c-0.936,0-1.708,0.276-2.315,0.828c-0.608,0.552-0.912,1.26-0.912,2.124c0,0.864,0.276,1.592,0.828,2.184
		C719.271,110.493,720.03,110.789,720.999,110.789z"/>
	<path d="M730.802,105.125v-2.52h9.816v2.208l-4.056,4.536c1.535,0.048,2.735,0.532,3.6,1.452c0.864,0.92,1.296,2.02,1.296,3.3
		c0,1.712-0.58,3.056-1.74,4.032c-1.16,0.976-2.651,1.464-4.476,1.464s-3.608-0.583-5.353-1.752l1.2-2.28
		c1.376,0.96,2.816,1.44,4.32,1.44c0.976,0,1.779-0.228,2.412-0.684c0.632-0.456,0.948-1.112,0.948-1.968s-0.353-1.54-1.057-2.052
		c-0.704-0.512-1.68-0.768-2.928-0.768c-0.624,0-1.224,0.088-1.8,0.264v-2.16l3.888-4.512H730.802z"/>
	<path d="M744.554,113.477v-2.52h7.969v2.52H744.554z"/>
	<path d="M761.546,105.197v14.184h-2.832v-14.184h-5.088v-2.592h13.008v2.592H761.546z"/>
	<path d="M778.467,117.665c-1.28,1.272-2.88,1.908-4.8,1.908s-3.521-0.636-4.8-1.908c-1.28-1.272-1.921-2.828-1.921-4.668
		s0.641-3.396,1.921-4.668c1.279-1.272,2.88-1.908,4.8-1.908s3.52,0.636,4.8,1.908c1.28,1.272,1.92,2.828,1.92,4.668
		S779.747,116.393,778.467,117.665z M770.774,116.009c0.76,0.776,1.725,1.164,2.893,1.164s2.132-0.388,2.892-1.164
		c0.76-0.776,1.141-1.78,1.141-3.012s-0.381-2.236-1.141-3.012c-0.76-0.776-1.724-1.164-2.892-1.164s-2.133,0.388-2.893,1.164
		c-0.76,0.776-1.14,1.78-1.14,3.012S770.015,115.233,770.774,116.009z"/>
	<path d="M784.418,117.749c-1.2-1.216-1.8-2.816-1.8-4.8c0-1.983,0.616-3.567,1.848-4.752c1.232-1.184,2.7-1.776,4.404-1.776
		s3.076,0.72,4.116,2.16v-7.008h2.688v17.808h-2.688v-1.92c-0.992,1.408-2.44,2.112-4.344,2.112
		C787.026,119.573,785.618,118.965,784.418,117.749z M785.307,113.057c0,1.224,0.392,2.22,1.176,2.988
		c0.783,0.768,1.704,1.152,2.76,1.152s1.952-0.388,2.688-1.164c0.735-0.776,1.104-1.772,1.104-2.988s-0.368-2.232-1.104-3.048
		c-0.736-0.816-1.641-1.224-2.713-1.224c-1.071,0-1.991,0.408-2.76,1.224C785.69,110.813,785.307,111.833,785.307,113.057z"/>
	<path d="M809.906,119.381h-2.448v-1.704c-1.056,1.264-2.472,1.896-4.248,1.896c-1.328,0-2.428-0.375-3.3-1.128
		c-0.872-0.752-1.308-1.756-1.308-3.012c0-1.256,0.464-2.196,1.392-2.82s2.184-0.936,3.768-0.936h3.48v-0.48
		c0-1.696-0.944-2.544-2.832-2.544c-1.185,0-2.416,0.432-3.696,1.296l-1.199-1.68c1.551-1.232,3.312-1.848,5.279-1.848
		c1.504,0,2.732,0.38,3.685,1.14c0.951,0.76,1.428,1.956,1.428,3.588V119.381z M807.218,114.629v-1.08h-3.023
		c-1.937,0-2.904,0.608-2.904,1.824c0,0.624,0.24,1.1,0.72,1.428c0.48,0.328,1.148,0.492,2.005,0.492c0.855,0,1.604-0.24,2.243-0.72
		S807.218,115.445,807.218,114.629z"/>
	<path d="M815.113,124.469c-1.168,0-2.224-0.424-3.168-1.272l1.225-2.184c0.56,0.528,1.14,0.792,1.739,0.792
		c0.601,0,1.088-0.216,1.464-0.648c0.376-0.432,0.564-0.904,0.564-1.416c0-0.224-1.72-4.6-5.16-13.128h2.88l3.816,9.408l3.815-9.408
		h2.881l-6.192,15.168c-0.368,0.832-0.896,1.488-1.584,1.968C816.705,124.229,815.945,124.469,815.113,124.469z"/>
</g>
<g opacity="0.3">
	<path d="M699.004,626.151c0.48-0.655,0.721-1.319,0.721-1.991c0-0.673-0.256-1.244-0.768-1.716
		c-0.514-0.473-1.162-0.709-1.945-0.709c-1.375,0-2.52,0.705-3.432,2.113l-2.279-1.32c0.734-1.104,1.547-1.936,2.436-2.496
		s2.031-0.84,3.432-0.84s2.629,0.443,3.684,1.332c1.057,0.888,1.584,2.1,1.584,3.636c0,0.864-0.225,1.688-0.672,2.472
		c-0.447,0.784-1.271,1.793-2.471,3.023l-3.938,4.009h7.609v2.712h-11.473v-2.4l5.088-5.111
		C697.717,627.711,698.523,626.807,699.004,626.151z"/>
	<path d="M707.355,634.204c-1.137-1.576-1.703-3.684-1.703-6.324s0.566-4.748,1.703-6.324c1.137-1.575,2.848-2.363,5.137-2.363
		c2.287,0,4,0.788,5.135,2.363c1.137,1.576,1.705,3.684,1.705,6.324s-0.568,4.748-1.705,6.324c-1.135,1.576-2.848,2.363-5.135,2.363
		C710.203,636.567,708.492,635.78,707.355,634.204z M709.385,623.343c-0.666,1.152-0.996,2.664-0.996,4.536s0.33,3.385,0.996,4.536
		c0.662,1.151,1.699,1.728,3.107,1.728s2.436-0.571,3.084-1.716c0.648-1.144,0.971-2.659,0.971-4.548
		c0-1.888-0.322-3.404-0.971-4.548s-1.676-1.716-3.084-1.716S710.047,622.192,709.385,623.343z"/>
	<path d="M723.867,634.204c-1.137-1.576-1.703-3.684-1.703-6.324s0.566-4.748,1.703-6.324c1.137-1.575,2.848-2.363,5.137-2.363
		c2.287,0,4,0.788,5.135,2.363c1.137,1.576,1.705,3.684,1.705,6.324s-0.568,4.748-1.705,6.324c-1.135,1.576-2.848,2.363-5.135,2.363
		C726.715,636.567,725.004,635.78,723.867,634.204z M725.896,623.343c-0.666,1.152-0.996,2.664-0.996,4.536s0.33,3.385,0.996,4.536
		c0.662,1.151,1.699,1.728,3.107,1.728s2.436-0.571,3.084-1.716c0.648-1.144,0.971-2.659,0.971-4.548
		c0-1.888-0.322-3.404-0.971-4.548s-1.676-1.716-3.084-1.716S726.559,622.192,725.896,623.343z"/>
	<path d="M740.859,620.536c1.072-0.848,2.416-1.271,4.031-1.271c1.617,0,2.961,0.424,4.033,1.271
		c1.07,0.848,1.607,1.916,1.607,3.203c0,1.289-0.6,2.429-1.801,3.421c1.617,1.024,2.426,2.464,2.426,4.319
		c0,1.44-0.576,2.648-1.729,3.625c-1.152,0.976-2.664,1.463-4.537,1.463c-1.871,0-3.383-0.487-4.535-1.463
		c-1.152-0.977-1.729-2.185-1.729-3.625c0-1.855,0.809-3.295,2.424-4.319c-1.199-0.992-1.799-2.132-1.799-3.421
		C739.252,622.452,739.787,621.383,740.859,620.536z M742.539,633.412c0.736,0.472,1.52,0.708,2.352,0.708s1.617-0.236,2.354-0.708
		c0.734-0.472,1.104-1.147,1.104-2.028c0-0.879-0.352-1.56-1.057-2.04c-0.703-0.479-1.504-0.72-2.4-0.72s-1.695,0.24-2.398,0.72
		c-0.705,0.48-1.057,1.161-1.057,2.04C741.436,632.264,741.803,632.94,742.539,633.412z M742.768,625.78
		c0.6,0.488,1.309,0.732,2.123,0.732c0.816,0,1.525-0.244,2.125-0.732s0.9-1.088,0.9-1.801c0-0.711-0.301-1.308-0.9-1.787
		c-0.6-0.48-1.309-0.721-2.125-0.721c-0.814,0-1.523,0.24-2.123,0.721c-0.6,0.479-0.9,1.076-0.9,1.787
		C741.867,624.692,742.168,625.292,742.768,625.78z"/>
	<path d="M754.25,630.471v-2.52h7.969v2.52H754.25z"/>
	<path d="M771.242,622.192v14.184h-2.832v-14.184h-5.088V619.6h13.008v2.592H771.242z"/>
	<path d="M788.164,634.66c-1.281,1.272-2.881,1.907-4.801,1.907s-3.52-0.635-4.799-1.907c-1.281-1.272-1.922-2.828-1.922-4.668
		s0.641-3.396,1.922-4.668c1.279-1.272,2.879-1.908,4.799-1.908s3.52,0.636,4.801,1.908c1.279,1.272,1.92,2.828,1.92,4.668
		S789.443,633.387,788.164,634.66z M780.471,633.003c0.76,0.776,1.725,1.164,2.893,1.164s2.133-0.388,2.893-1.164
		s1.141-1.78,1.141-3.012s-0.381-2.235-1.141-3.013c-0.76-0.775-1.725-1.164-2.893-1.164s-2.133,0.389-2.893,1.164
		c-0.76,0.777-1.139,1.781-1.139,3.013S779.711,632.227,780.471,633.003z"/>
	<path d="M794.115,634.744c-1.201-1.216-1.801-2.815-1.801-4.8s0.617-3.568,1.848-4.752c1.232-1.184,2.701-1.776,4.404-1.776
		c1.705,0,3.076,0.72,4.117,2.16v-7.009h2.688v17.809h-2.688v-1.92c-0.992,1.408-2.441,2.111-4.344,2.111
		C796.723,636.567,795.314,635.959,794.115,634.744z M795.004,630.051c0,1.225,0.391,2.221,1.176,2.988
		c0.783,0.768,1.703,1.152,2.76,1.152c1.055,0,1.951-0.389,2.688-1.164c0.736-0.776,1.104-1.772,1.104-2.988
		s-0.367-2.232-1.104-3.048c-0.736-0.816-1.641-1.224-2.713-1.224c-1.07,0-1.99,0.407-2.76,1.224
		C795.387,627.807,795.004,628.828,795.004,630.051z"/>
	<path d="M819.604,636.375h-2.449v-1.704c-1.055,1.265-2.471,1.896-4.248,1.896c-1.328,0-2.428-0.375-3.299-1.127
		c-0.873-0.752-1.309-1.756-1.309-3.013c0-1.256,0.465-2.196,1.393-2.819c0.928-0.625,2.184-0.937,3.768-0.937h3.48v-0.479
		c0-1.696-0.945-2.545-2.832-2.545c-1.186,0-2.416,0.433-3.697,1.297l-1.199-1.68c1.551-1.232,3.313-1.849,5.279-1.849
		c1.504,0,2.732,0.38,3.686,1.14c0.951,0.76,1.428,1.957,1.428,3.588V636.375z M816.914,631.624v-1.08h-3.023
		c-1.936,0-2.904,0.608-2.904,1.824c0,0.624,0.24,1.1,0.721,1.428s1.148,0.492,2.004,0.492s1.604-0.24,2.244-0.721
		C816.594,633.087,816.914,632.44,816.914,631.624z"/>
	<path d="M824.811,641.463c-1.168,0-2.225-0.424-3.168-1.271l1.225-2.185c0.559,0.528,1.139,0.792,1.738,0.792
		c0.602,0,1.088-0.216,1.465-0.648c0.375-0.432,0.564-0.903,0.564-1.416c0-0.224-1.721-4.6-5.16-13.127h2.879l3.816,9.408
		l3.816-9.408h2.881l-6.193,15.168c-0.367,0.832-0.896,1.488-1.584,1.968S825.643,641.463,824.811,641.463z"/>
</g>
<g opacity="0.3">
	<path d="M493.285,216.605h6.096v16.776h-2.688v-14.256h-3.407V216.605z"/>
	<path d="M508.116,231.029c1.488,0,2.584-0.504,3.288-1.512c0.704-1.008,1.064-2.368,1.08-4.08c-0.4,0.448-0.977,0.868-1.728,1.26
		c-0.753,0.392-1.584,0.588-2.496,0.588c-1.505,0-2.765-0.5-3.78-1.5c-1.017-1-1.524-2.328-1.524-3.984
		c0-1.656,0.548-2.988,1.645-3.996c1.096-1.008,2.476-1.512,4.14-1.512c2.688,0,4.544,1.2,5.568,3.6
		c0.576,1.376,0.864,2.928,0.864,4.656s-0.185,3.168-0.553,4.32c-0.368,1.152-0.872,2.064-1.512,2.736
		c-1.248,1.312-2.78,1.968-4.596,1.968c-1.816,0-3.46-0.568-4.933-1.704l1.416-2.088c0.368,0.32,0.86,0.608,1.477,0.864
		C507.088,230.901,507.637,231.029,508.116,231.029z M508.633,224.789c0.968,0,1.775-0.268,2.424-0.804
		c0.647-0.536,0.972-1.232,0.972-2.088s-0.312-1.592-0.936-2.208c-0.624-0.616-1.404-0.924-2.341-0.924
		c-0.936,0-1.708,0.276-2.315,0.828c-0.608,0.552-0.912,1.26-0.912,2.124c0,0.864,0.276,1.592,0.828,2.184
		C506.904,224.493,507.664,224.789,508.633,224.789z"/>
	<path d="M522.972,231.029c1.488,0,2.584-0.504,3.288-1.512c0.704-1.008,1.064-2.368,1.08-4.08c-0.4,0.448-0.977,0.868-1.728,1.26
		c-0.753,0.392-1.584,0.588-2.496,0.588c-1.505,0-2.765-0.5-3.78-1.5c-1.017-1-1.524-2.328-1.524-3.984
		c0-1.656,0.548-2.988,1.645-3.996c1.096-1.008,2.476-1.512,4.14-1.512c2.688,0,4.544,1.2,5.568,3.6
		c0.576,1.376,0.864,2.928,0.864,4.656s-0.185,3.168-0.553,4.32c-0.368,1.152-0.872,2.064-1.512,2.736
		c-1.248,1.312-2.78,1.968-4.596,1.968c-1.816,0-3.46-0.568-4.933-1.704l1.416-2.088c0.368,0.32,0.86,0.608,1.477,0.864
		C521.943,230.901,522.492,231.029,522.972,231.029z M523.488,224.789c0.968,0,1.775-0.268,2.424-0.804
		c0.647-0.536,0.972-1.232,0.972-2.088s-0.312-1.592-0.936-2.208c-0.624-0.616-1.404-0.924-2.341-0.924
		c-0.936,0-1.708,0.276-2.315,0.828c-0.608,0.552-0.912,1.26-0.912,2.124c0,0.864,0.276,1.592,0.828,2.184
		C521.76,224.493,522.52,224.789,523.488,224.789z"/>
	<path d="M537.827,231.029c1.488,0,2.584-0.504,3.288-1.512c0.704-1.008,1.064-2.368,1.08-4.08c-0.4,0.448-0.977,0.868-1.728,1.26
		c-0.753,0.392-1.584,0.588-2.496,0.588c-1.505,0-2.765-0.5-3.78-1.5c-1.017-1-1.524-2.328-1.524-3.984
		c0-1.656,0.548-2.988,1.645-3.996c1.096-1.008,2.476-1.512,4.14-1.512c2.688,0,4.544,1.2,5.568,3.6
		c0.576,1.376,0.864,2.928,0.864,4.656s-0.185,3.168-0.553,4.32c-0.368,1.152-0.872,2.064-1.512,2.736
		c-1.248,1.312-2.78,1.968-4.596,1.968c-1.816,0-3.46-0.568-4.933-1.704l1.416-2.088c0.368,0.32,0.86,0.608,1.477,0.864
		C536.799,230.901,537.348,231.029,537.827,231.029z M538.344,224.789c0.968,0,1.775-0.268,2.424-0.804
		c0.647-0.536,0.972-1.232,0.972-2.088s-0.312-1.592-0.936-2.208c-0.624-0.616-1.404-0.924-2.341-0.924
		c-0.936,0-1.708,0.276-2.315,0.828c-0.608,0.552-0.912,1.26-0.912,2.124c0,0.864,0.276,1.592,0.828,2.184
		C536.615,224.493,537.375,224.789,538.344,224.789z"/>
	<path d="M548.026,227.477v-2.52h7.969v2.52H548.026z"/>
	<path d="M566.171,223.157c0.479-0.656,0.72-1.32,0.72-1.992c0-0.672-0.256-1.244-0.768-1.716c-0.513-0.472-1.161-0.708-1.944-0.708
		c-1.376,0-2.521,0.705-3.432,2.112l-2.28-1.32c0.735-1.104,1.548-1.936,2.436-2.496c0.889-0.56,2.032-0.84,3.433-0.84
		c1.399,0,2.628,0.444,3.684,1.332s1.584,2.1,1.584,3.636c0,0.864-0.225,1.688-0.672,2.472c-0.448,0.784-1.272,1.792-2.472,3.024
		l-3.937,4.008h7.608v2.712h-11.473v-2.4l5.089-5.112C564.883,224.717,565.69,223.813,566.171,223.157z"/>
	<path d="M574.522,231.209c-1.137-1.576-1.704-3.684-1.704-6.324s0.567-4.748,1.704-6.324c1.136-1.576,2.848-2.364,5.136-2.364
		s4,0.789,5.136,2.364c1.137,1.576,1.704,3.684,1.704,6.324s-0.567,4.749-1.704,6.324c-1.136,1.576-2.848,2.364-5.136,2.364
		S575.658,232.785,574.522,231.209z M576.551,220.349c-0.665,1.152-0.996,2.664-0.996,4.536s0.331,3.384,0.996,4.536
		c0.663,1.152,1.699,1.728,3.107,1.728s2.437-0.572,3.084-1.716c0.648-1.144,0.972-2.66,0.972-4.548
		c0-1.888-0.323-3.404-0.972-4.548c-0.647-1.144-1.676-1.716-3.084-1.716S577.214,219.197,576.551,220.349z"/>
	<path d="M591.034,231.209c-1.137-1.576-1.704-3.684-1.704-6.324s0.567-4.748,1.704-6.324c1.136-1.576,2.848-2.364,5.136-2.364
		s4,0.789,5.136,2.364c1.137,1.576,1.704,3.684,1.704,6.324s-0.567,4.749-1.704,6.324c-1.136,1.576-2.848,2.364-5.136,2.364
		S592.17,232.785,591.034,231.209z M593.063,220.349c-0.665,1.152-0.996,2.664-0.996,4.536s0.331,3.384,0.996,4.536
		c0.663,1.152,1.699,1.728,3.107,1.728s2.437-0.572,3.084-1.716c0.648-1.144,0.972-2.66,0.972-4.548
		c0-1.888-0.323-3.404-0.972-4.548c-0.647-1.144-1.676-1.716-3.084-1.716S593.726,219.197,593.063,220.349z"/>
	<path d="M605.529,221.429v-4.824h11.809v2.52l-7.104,14.256h-3.119l6.936-14.208h-5.952v2.256H605.529z"/>
</g>
<g opacity="0.3">
	<path d="M490.74,494.664c0.479-0.655,0.72-1.319,0.72-1.991c0-0.673-0.256-1.244-0.768-1.717c-0.513-0.472-1.161-0.708-1.944-0.708
		c-1.376,0-2.521,0.704-3.432,2.112l-2.28-1.32c0.735-1.104,1.548-1.936,2.436-2.496c0.889-0.56,2.032-0.84,3.433-0.84
		c1.399,0,2.628,0.443,3.684,1.332s1.584,2.1,1.584,3.637c0,0.863-0.225,1.688-0.672,2.471c-0.448,0.785-1.272,1.793-2.472,3.024
		l-3.937,4.009h7.608v2.711h-11.473v-2.399l5.089-5.112C489.452,496.223,490.26,495.32,490.74,494.664z"/>
	<path d="M499.092,502.715c-1.137-1.575-1.704-3.684-1.704-6.324c0-2.64,0.567-4.747,1.704-6.323
		c1.136-1.575,2.848-2.364,5.136-2.364s4,0.789,5.136,2.364c1.137,1.576,1.704,3.684,1.704,6.323c0,2.641-0.567,4.749-1.704,6.324
		c-1.136,1.576-2.848,2.364-5.136,2.364S500.228,504.292,499.092,502.715z M501.12,491.856c-0.665,1.152-0.996,2.664-0.996,4.535
		c0,1.873,0.331,3.385,0.996,4.537c0.663,1.151,1.699,1.728,3.107,1.728s2.437-0.571,3.084-1.716
		c0.648-1.145,0.972-2.66,0.972-4.549c0-1.887-0.323-3.403-0.972-4.547c-0.647-1.145-1.676-1.717-3.084-1.717
		S501.783,490.704,501.12,491.856z"/>
	<path d="M513.18,488.112h6.096v16.775h-2.688v-14.256h-3.407V488.112z"/>
	<path d="M523.475,490.631v-2.52h9.816v2.208l-4.056,4.536c1.535,0.048,2.735,0.531,3.6,1.451c0.864,0.921,1.296,2.021,1.296,3.301
		c0,1.712-0.58,3.057-1.74,4.031c-1.16,0.977-2.651,1.465-4.476,1.465s-3.608-0.584-5.353-1.752l1.2-2.28
		c1.376,0.96,2.816,1.44,4.32,1.44c0.976,0,1.779-0.229,2.412-0.685c0.632-0.456,0.948-1.112,0.948-1.968s-0.353-1.54-1.057-2.053
		c-0.704-0.512-1.68-0.768-2.928-0.768c-0.624,0-1.224,0.088-1.8,0.264v-2.16l3.888-4.512H523.475z"/>
	<path d="M537.227,498.984v-2.521h7.969v2.521H537.227z"/>
	<path d="M554.219,490.704v14.184h-2.832v-14.184h-5.088v-2.592h13.008v2.592H554.219z"/>
	<path d="M571.14,503.172c-1.28,1.271-2.88,1.907-4.8,1.907s-3.521-0.636-4.8-1.907c-1.28-1.272-1.921-2.828-1.921-4.668
		s0.641-3.396,1.921-4.668c1.279-1.273,2.88-1.908,4.8-1.908s3.52,0.635,4.8,1.908c1.28,1.271,1.92,2.828,1.92,4.668
		S572.42,501.9,571.14,503.172z M563.447,501.516c0.76,0.775,1.725,1.164,2.893,1.164s2.132-0.389,2.892-1.164
		c0.76-0.776,1.141-1.78,1.141-3.012c0-1.232-0.381-2.236-1.141-3.013s-1.724-1.164-2.892-1.164s-2.133,0.388-2.893,1.164
		s-1.14,1.78-1.14,3.013C562.308,499.736,562.688,500.74,563.447,501.516z"/>
	<path d="M577.091,503.256c-1.2-1.217-1.8-2.816-1.8-4.801c0-1.983,0.616-3.567,1.848-4.752c1.232-1.184,2.7-1.775,4.404-1.775
		s3.076,0.719,4.116,2.16v-7.009h2.688v17.808h-2.688v-1.92c-0.992,1.408-2.44,2.112-4.344,2.112
		C579.699,505.08,578.291,504.471,577.091,503.256z M577.979,498.563c0,1.225,0.392,2.221,1.176,2.988
		c0.783,0.769,1.704,1.152,2.76,1.152s1.952-0.388,2.688-1.164c0.735-0.775,1.104-1.771,1.104-2.988
		c0-1.215-0.368-2.231-1.104-3.047c-0.736-0.816-1.641-1.225-2.713-1.225c-1.071,0-1.991,0.408-2.76,1.225
		C578.363,496.32,577.979,497.34,577.979,498.563z"/>
	<path d="M602.579,504.887h-2.448v-1.703c-1.056,1.264-2.472,1.896-4.248,1.896c-1.328,0-2.428-0.376-3.3-1.128
		s-1.308-1.756-1.308-3.012s0.464-2.196,1.392-2.82s2.184-0.936,3.768-0.936h3.48v-0.48c0-1.695-0.944-2.544-2.832-2.544
		c-1.185,0-2.416,0.433-3.696,1.296l-1.199-1.68c1.551-1.232,3.312-1.848,5.279-1.848c1.504,0,2.732,0.38,3.685,1.14
		c0.951,0.76,1.428,1.956,1.428,3.588V504.887z M599.891,500.135v-1.08h-3.023c-1.937,0-2.904,0.609-2.904,1.824
		c0,0.625,0.24,1.101,0.72,1.428c0.48,0.328,1.148,0.492,2.005,0.492c0.855,0,1.604-0.24,2.243-0.72
		S599.891,500.952,599.891,500.135z"/>
	<path d="M607.786,509.975c-1.168,0-2.224-0.424-3.168-1.271l1.225-2.184c0.56,0.527,1.14,0.791,1.739,0.791
		c0.601,0,1.088-0.215,1.464-0.647c0.376-0.432,0.564-0.903,0.564-1.416c0-0.224-1.72-4.6-5.16-13.128h2.88l3.816,9.408l3.815-9.408
		h2.881l-6.192,15.168c-0.368,0.832-0.896,1.488-1.584,1.969C609.378,509.736,608.618,509.975,607.786,509.975z"/>
</g>
<g opacity="0.3">
	<path d="M690.796,348.593h6.096v16.776h-2.688v-14.256h-3.407V348.593z"/>
	<path d="M705.627,363.016c1.488,0,2.584-0.503,3.288-1.511c0.704-1.008,1.064-2.368,1.08-4.08c-0.4,0.448-0.977,0.868-1.728,1.26
		c-0.753,0.392-1.584,0.588-2.496,0.588c-1.505,0-2.765-0.5-3.78-1.5c-1.017-1-1.524-2.328-1.524-3.984
		c0-1.656,0.548-2.988,1.645-3.996c1.096-1.008,2.476-1.512,4.14-1.512c2.688,0,4.544,1.2,5.568,3.6
		c0.576,1.376,0.864,2.928,0.864,4.656s-0.185,3.168-0.553,4.32c-0.368,1.152-0.872,2.064-1.512,2.736
		c-1.248,1.313-2.78,1.969-4.596,1.969c-1.816,0-3.46-0.568-4.933-1.705l1.416-2.087c0.368,0.32,0.86,0.608,1.477,0.864
		C704.599,362.889,705.147,363.016,705.627,363.016z M706.144,356.777c0.968,0,1.775-0.268,2.424-0.804
		c0.647-0.536,0.972-1.232,0.972-2.088s-0.312-1.592-0.936-2.208c-0.624-0.616-1.404-0.924-2.341-0.924
		c-0.936,0-1.708,0.276-2.315,0.828c-0.608,0.552-0.912,1.26-0.912,2.124c0,0.864,0.276,1.592,0.828,2.184
		C704.415,356.481,705.175,356.777,706.144,356.777z"/>
	<path d="M720.482,363.016c1.488,0,2.584-0.503,3.288-1.511c0.704-1.008,1.064-2.368,1.08-4.08c-0.4,0.448-0.977,0.868-1.728,1.26
		c-0.753,0.392-1.584,0.588-2.496,0.588c-1.505,0-2.765-0.5-3.78-1.5c-1.017-1-1.524-2.328-1.524-3.984
		c0-1.656,0.548-2.988,1.645-3.996c1.096-1.008,2.476-1.512,4.14-1.512c2.688,0,4.544,1.2,5.568,3.6
		c0.576,1.376,0.864,2.928,0.864,4.656s-0.185,3.168-0.553,4.32c-0.368,1.152-0.872,2.064-1.512,2.736
		c-1.248,1.313-2.78,1.969-4.596,1.969c-1.816,0-3.46-0.568-4.933-1.705l1.416-2.087c0.368,0.32,0.86,0.608,1.477,0.864
		C719.454,362.889,720.003,363.016,720.482,363.016z M720.999,356.777c0.968,0,1.775-0.268,2.424-0.804
		c0.647-0.536,0.972-1.232,0.972-2.088s-0.312-1.592-0.936-2.208c-0.624-0.616-1.404-0.924-2.341-0.924
		c-0.936,0-1.708,0.276-2.315,0.828c-0.608,0.552-0.912,1.26-0.912,2.124c0,0.864,0.276,1.592,0.828,2.184
		C719.271,356.481,720.03,356.777,720.999,356.777z"/>
	<path d="M730.802,351.113v-2.52h9.816v2.208l-4.056,4.536c1.535,0.048,2.735,0.532,3.6,1.452c0.864,0.92,1.296,2.02,1.296,3.3
		c0,1.712-0.58,3.056-1.74,4.032s-2.651,1.464-4.476,1.464s-3.608-0.584-5.353-1.752l1.2-2.28c1.376,0.96,2.816,1.44,4.32,1.44
		c0.976,0,1.779-0.228,2.412-0.684c0.632-0.456,0.948-1.112,0.948-1.968s-0.353-1.54-1.057-2.052
		c-0.704-0.512-1.68-0.768-2.928-0.768c-0.624,0-1.224,0.088-1.8,0.264v-2.16l3.888-4.512H730.802z"/>
	<path d="M744.554,359.465v-2.52h7.969v2.52H744.554z"/>
	<path d="M762.698,355.145c0.479-0.656,0.72-1.32,0.72-1.992c0-0.672-0.256-1.244-0.768-1.716c-0.513-0.472-1.161-0.708-1.944-0.708
		c-1.376,0-2.521,0.705-3.432,2.112l-2.28-1.32c0.735-1.104,1.548-1.936,2.436-2.496c0.889-0.56,2.032-0.84,3.433-0.84
		c1.399,0,2.628,0.444,3.684,1.332s1.584,2.1,1.584,3.636c0,0.864-0.225,1.688-0.672,2.472c-0.448,0.784-1.272,1.792-2.472,3.024
		l-3.937,4.008h7.608v2.712h-11.473v-2.399l5.089-5.113C761.41,356.705,762.218,355.801,762.698,355.145z"/>
	<path d="M771.05,363.197c-1.137-1.576-1.704-3.684-1.704-6.324s0.567-4.748,1.704-6.324c1.136-1.576,2.848-2.364,5.136-2.364
		s4,0.789,5.136,2.364c1.137,1.576,1.704,3.684,1.704,6.324s-0.567,4.749-1.704,6.324c-1.136,1.576-2.848,2.364-5.136,2.364
		S772.186,364.773,771.05,363.197z M773.078,352.336c-0.665,1.152-0.996,2.664-0.996,4.536s0.331,3.384,0.996,4.536
		c0.663,1.152,1.699,1.729,3.107,1.729s2.437-0.572,3.084-1.717c0.648-1.144,0.972-2.66,0.972-4.548
		c0-1.888-0.323-3.404-0.972-4.548c-0.647-1.144-1.676-1.716-3.084-1.716S773.741,351.185,773.078,352.336z"/>
	<path d="M787.562,363.197c-1.137-1.576-1.704-3.684-1.704-6.324s0.567-4.748,1.704-6.324c1.136-1.576,2.848-2.364,5.136-2.364
		s4,0.789,5.136,2.364c1.137,1.576,1.704,3.684,1.704,6.324s-0.567,4.749-1.704,6.324c-1.136,1.576-2.848,2.364-5.136,2.364
		S788.697,364.773,787.562,363.197z M789.59,352.336c-0.665,1.152-0.996,2.664-0.996,4.536s0.331,3.384,0.996,4.536
		c0.663,1.152,1.699,1.729,3.107,1.729s2.437-0.572,3.084-1.717c0.648-1.144,0.972-2.66,0.972-4.548
		c0-1.888-0.323-3.404-0.972-4.548c-0.647-1.144-1.676-1.716-3.084-1.716S790.253,351.185,789.59,352.336z"/>
	<path d="M804.073,363.197c-1.137-1.576-1.704-3.684-1.704-6.324s0.567-4.748,1.704-6.324c1.136-1.576,2.848-2.364,5.136-2.364
		s4,0.789,5.136,2.364c1.137,1.576,1.704,3.684,1.704,6.324s-0.567,4.749-1.704,6.324c-1.136,1.576-2.848,2.364-5.136,2.364
		S805.209,364.773,804.073,363.197z M806.102,352.336c-0.665,1.152-0.996,2.664-0.996,4.536s0.331,3.384,0.996,4.536
		c0.663,1.152,1.699,1.729,3.107,1.729s2.437-0.572,3.084-1.717c0.648-1.144,0.972-2.66,0.972-4.548
		c0-1.888-0.323-3.404-0.972-4.548c-0.647-1.144-1.676-1.716-3.084-1.716S806.765,351.185,806.102,352.336z"/>
	<path d="M827.954,345.905h2.399l-10.392,22.271h-2.4L827.954,345.905z"/>
	<path d="M839.882,355.145c0.479-0.656,0.72-1.32,0.72-1.992c0-0.672-0.256-1.244-0.768-1.716c-0.513-0.472-1.161-0.708-1.944-0.708
		c-1.376,0-2.521,0.705-3.432,2.112l-2.28-1.32c0.735-1.104,1.548-1.936,2.436-2.496c0.889-0.56,2.032-0.84,3.433-0.84
		c1.399,0,2.628,0.444,3.684,1.332s1.584,2.1,1.584,3.636c0,0.864-0.225,1.688-0.672,2.472c-0.448,0.784-1.272,1.792-2.472,3.024
		l-3.937,4.008h7.608v2.712h-11.473v-2.399l5.089-5.113C838.594,356.705,839.401,355.801,839.882,355.145z"/>
	<path d="M848.233,363.197c-1.137-1.576-1.704-3.684-1.704-6.324s0.567-4.748,1.704-6.324c1.136-1.576,2.848-2.364,5.136-2.364
		s4,0.789,5.136,2.364c1.137,1.576,1.704,3.684,1.704,6.324s-0.567,4.749-1.704,6.324c-1.136,1.576-2.848,2.364-5.136,2.364
		S849.369,364.773,848.233,363.197z M850.262,352.336c-0.665,1.152-0.996,2.664-0.996,4.536s0.331,3.384,0.996,4.536
		c0.663,1.152,1.699,1.729,3.107,1.729s2.437-0.572,3.084-1.717c0.648-1.144,0.972-2.66,0.972-4.548
		c0-1.888-0.323-3.404-0.972-4.548c-0.647-1.144-1.676-1.716-3.084-1.716S850.925,351.185,850.262,352.336z"/>
	<path d="M862.321,348.593h6.096v16.776h-2.688v-14.256h-3.407V348.593z"/>
	<path d="M873.889,363.197c-1.137-1.576-1.704-3.684-1.704-6.324s0.567-4.748,1.704-6.324c1.136-1.576,2.848-2.364,5.136-2.364
		s4,0.789,5.136,2.364c1.137,1.576,1.704,3.684,1.704,6.324s-0.567,4.749-1.704,6.324c-1.136,1.576-2.848,2.364-5.136,2.364
		S875.024,364.773,873.889,363.197z M875.917,352.336c-0.665,1.152-0.996,2.664-0.996,4.536s0.331,3.384,0.996,4.536
		c0.663,1.152,1.699,1.729,3.107,1.729s2.437-0.572,3.084-1.717c0.648-1.144,0.972-2.66,0.972-4.548
		c0-1.888-0.323-3.404-0.972-4.548c-0.647-1.144-1.676-1.716-3.084-1.716S876.58,351.185,875.917,352.336z"/>
	<path d="M889.008,359.465v-2.52h7.969v2.52H889.008z"/>
	<path d="M903.744,354.761v6.48c0,0.608,0.16,1.092,0.48,1.452c0.319,0.36,0.768,0.54,1.344,0.54s1.128-0.279,1.656-0.84
		l1.104,1.896c-0.944,0.849-1.988,1.272-3.132,1.272c-1.145,0-2.12-0.396-2.928-1.188c-0.809-0.792-1.212-1.86-1.212-3.204v-6.408
		h-1.608v-2.16h1.608v-4.008h2.688v4.008h3.36v2.16H903.744z"/>
	<path d="M921.048,363.653c-1.28,1.271-2.88,1.908-4.8,1.908s-3.521-0.637-4.8-1.908c-1.28-1.272-1.921-2.828-1.921-4.668
		s0.641-3.396,1.921-4.668c1.279-1.272,2.88-1.908,4.8-1.908s3.52,0.636,4.8,1.908c1.28,1.272,1.92,2.828,1.92,4.668
		S922.328,362.381,921.048,363.653z M913.355,361.997c0.76,0.776,1.725,1.164,2.893,1.164s2.132-0.388,2.892-1.164
		c0.76-0.776,1.141-1.78,1.141-3.012s-0.381-2.236-1.141-3.012c-0.76-0.776-1.724-1.164-2.892-1.164s-2.133,0.388-2.893,1.164
		c-0.76,0.776-1.14,1.78-1.14,3.012S912.596,361.221,913.355,361.997z"/>
	<path d="M927,363.737c-1.2-1.216-1.8-2.816-1.8-4.8c0-1.983,0.616-3.567,1.848-4.752c1.232-1.184,2.7-1.776,4.404-1.776
		s3.076,0.72,4.116,2.16v-7.008h2.688v17.808h-2.688v-1.92c-0.992,1.408-2.44,2.112-4.344,2.112
		C929.608,365.561,928.2,364.953,927,363.737z M927.889,359.044c0,1.224,0.392,2.22,1.176,2.988c0.783,0.769,1.704,1.151,2.76,1.151
		s1.952-0.387,2.688-1.164c0.735-0.776,1.104-1.772,1.104-2.988s-0.368-2.232-1.104-3.048c-0.736-0.816-1.641-1.224-2.713-1.224
		c-1.071,0-1.991,0.408-2.76,1.224C928.272,356.801,927.889,357.821,927.889,359.044z"/>
	<path d="M952.487,365.369h-2.448v-1.704c-1.056,1.264-2.472,1.896-4.248,1.896c-1.328,0-2.428-0.376-3.3-1.129
		c-0.872-0.752-1.308-1.755-1.308-3.012c0-1.256,0.464-2.196,1.392-2.82s2.184-0.936,3.768-0.936h3.48v-0.48
		c0-1.696-0.944-2.544-2.832-2.544c-1.185,0-2.416,0.432-3.696,1.296l-1.199-1.68c1.551-1.232,3.312-1.848,5.279-1.848
		c1.504,0,2.732,0.38,3.685,1.14c0.951,0.76,1.428,1.956,1.428,3.588V365.369z M949.799,360.617v-1.08h-3.023
		c-1.937,0-2.904,0.608-2.904,1.824c0,0.624,0.24,1.1,0.72,1.428c0.48,0.328,1.148,0.492,2.005,0.492c0.855,0,1.604-0.24,2.243-0.72
		S949.799,361.433,949.799,360.617z"/>
	<path d="M957.695,370.457c-1.168,0-2.224-0.424-3.168-1.272l1.225-2.184c0.56,0.528,1.14,0.792,1.739,0.792
		c0.601,0,1.088-0.216,1.464-0.647s0.564-0.904,0.564-1.416c0-0.225-1.72-4.6-5.16-13.128h2.88l3.816,9.408l3.815-9.408h2.881
		l-6.192,15.167c-0.368,0.832-0.896,1.488-1.584,1.969C959.287,370.217,958.527,370.457,957.695,370.457z"/>
</g>
<g opacity="0.9">
	<path d="M626.29,12.888h-2.16V7.92l-4.68-7.614h2.322l3.438,5.724l3.438-5.724h2.322l-4.68,7.614V12.888z"/>
	<path d="M641.41,0.306v1.998h-6.714v3.33h6.03v1.89h-6.03v3.366h6.93v1.998h-9.054V0.306H641.41z"/>
	<path d="M646.125,10.026l-1.26,2.862h-2.268l5.544-12.582h2.268l5.543,12.582h-2.268l-1.26-2.862H646.125z M651.562,8.064
		l-2.286-5.184l-2.286,5.184H651.562z"/>
	<path d="M667.744,4.392c0,2.076-0.906,3.384-2.719,3.924l3.295,4.572h-2.701l-3.006-4.23h-2.789v4.23h-2.125V0.306h4.68
		c1.92,0,3.295,0.324,4.123,0.972S667.744,2.964,667.744,4.392z M664.918,6.174c0.432-0.372,0.647-0.969,0.647-1.791
		s-0.222-1.386-0.666-1.692c-0.444-0.306-1.235-0.459-2.376-0.459h-2.699v4.5h2.646C663.67,6.732,664.486,6.546,664.918,6.174z"/>
	<path d="M674.611,1.962c-0.619,0-1.125,0.126-1.521,0.378s-0.594,0.633-0.594,1.143c0,0.51,0.197,0.9,0.594,1.17
		s1.238,0.561,2.529,0.873c1.289,0.312,2.262,0.75,2.916,1.314c0.653,0.564,0.98,1.395,0.98,2.493c0,1.098-0.414,1.989-1.242,2.673
		c-0.828,0.684-1.914,1.026-3.258,1.026c-1.969,0-3.715-0.678-5.238-2.034l1.332-1.602c1.271,1.104,2.592,1.656,3.961,1.656
		c0.684,0,1.227-0.147,1.629-0.441c0.401-0.294,0.603-0.684,0.603-1.17c0-0.486-0.188-0.864-0.567-1.134
		c-0.378-0.27-1.029-0.516-1.953-0.738s-1.626-0.426-2.105-0.612c-0.48-0.186-0.906-0.429-1.278-0.729
		c-0.744-0.564-1.116-1.428-1.116-2.592s0.424-2.061,1.27-2.691C672.396,0.315,673.443,0,674.691,0c0.805,0,1.602,0.132,2.395,0.396
		c0.791,0.264,1.476,0.636,2.052,1.116l-1.134,1.602c-0.373-0.336-0.877-0.612-1.512-0.828
		C675.855,2.07,675.229,1.962,674.611,1.962z"/>
</g>
<g>
	<circle fill="#FF4271" stroke="#FFFFFF" stroke-width="8" stroke-miterlimit="10" cx="648.068" cy="357.099" r="14.102"/>
	
		<line fill="none" stroke="#FF4271" stroke-width="4" stroke-miterlimit="10" stroke-dasharray="18,8" x1="641" y1="356.778" x2="405" y2="356.778"/>
	<circle fill="none" stroke="#DDDDDD" stroke-width="5" stroke-miterlimit="10" cx="365.051" cy="358.28" r="39.748"/>
	<g>
		<path fill="#FF4271" d="M354.239,348.698h6.096v16.776h-2.688v-14.256h-3.408V348.698z"/>
		<path fill="#FF4271" d="M364.536,351.218v-2.52h9.816v2.208l-4.056,4.536c1.536,0.048,2.736,0.532,3.6,1.452
			c0.864,0.92,1.296,2.02,1.296,3.3c0,1.712-0.58,3.056-1.74,4.032c-1.161,0.976-2.652,1.464-4.476,1.464
			c-1.824,0-3.608-0.584-5.352-1.752l1.2-2.28c1.375,0.96,2.815,1.44,4.32,1.44c0.976,0,1.78-0.229,2.412-0.684
			c0.632-0.456,0.948-1.112,0.948-1.968s-0.352-1.54-1.056-2.052c-0.704-0.512-1.68-0.768-2.928-0.768
			c-0.624,0-1.224,0.088-1.8,0.264v-2.16l3.888-4.512H364.536z"/>
	</g>
	<path fill="none" stroke="#FF4271" stroke-width="5" stroke-miterlimit="10" d="M325.304,358.28
		c0-21.952,17.795-39.748,39.748-39.748"/>
	<circle fill="#FFFFFF" stroke="#FF4271" stroke-width="4" stroke-miterlimit="10" cx="367.105" cy="318.78" r="6.667"/>
	<path fill="none" stroke="#FF4271" stroke-width="5" stroke-miterlimit="10" d="M401.733,373.612
		c-6,14.341-20.164,24.416-36.682,24.416c-21.953,0-39.748-17.795-39.748-39.748c0-20.393,15.356-37.199,35.138-39.484"/>
</g>
<g>
	<circle fill="#D496A7" stroke="#FFFFFF" stroke-width="8" stroke-miterlimit="10" cx="648.107" cy="628.099" r="14.102"/>
	
		<line fill="none" stroke="#D496A7" stroke-width="4" stroke-miterlimit="10" stroke-dasharray="18,8" x1="402" y1="628.778" x2="638" y2="628.778"/>
	<g>
		<circle fill="none" stroke="#DDDDDD" stroke-width="5" stroke-miterlimit="10" cx="360.776" cy="629.029" r="39.748"/>
		<g>
			<path fill="#D496A7" d="M366.101,623.586c0,1.289-0.6,2.429-1.8,3.421c1.616,1.024,2.424,2.464,2.424,4.319
				c0,1.44-0.576,2.648-1.728,3.625c-1.152,0.976-2.664,1.463-4.536,1.463s-3.384-0.487-4.536-1.463
				c-1.152-0.977-1.728-2.185-1.728-3.625c0-1.855,0.808-3.295,2.424-4.319c-1.2-0.992-1.8-2.132-1.8-3.421
				c0-1.287,0.536-2.355,1.608-3.203c1.072-0.848,2.416-1.271,4.032-1.271s2.96,0.424,4.032,1.271
				C365.565,621.231,366.101,622.299,366.101,623.586z M363.917,631.231c0-0.879-0.352-1.56-1.056-2.04
				c-0.704-0.479-1.504-0.72-2.4-0.72s-1.696,0.24-2.4,0.72c-0.704,0.48-1.056,1.161-1.056,2.04c0,0.881,0.368,1.557,1.104,2.028
				s1.52,0.708,2.352,0.708s1.616-0.236,2.352-0.708S363.917,632.112,363.917,631.231z M363.485,623.827
				c0-0.711-0.3-1.308-0.9-1.787c-0.6-0.48-1.308-0.721-2.124-0.721c-0.816,0-1.524,0.24-2.124,0.721
				c-0.6,0.479-0.9,1.076-0.9,1.787c0,0.713,0.3,1.313,0.9,1.801s1.308,0.732,2.124,0.732c0.816,0,1.524-0.244,2.124-0.732
				C363.185,625.139,363.485,624.54,363.485,623.827z"/>
		</g>
		<path fill="none" stroke="#D496A7" stroke-width="5" stroke-miterlimit="10" d="M360.775,668.777
			c21.953,0,39.748-17.795,39.748-39.748c0-6.584-1.602-12.794-4.435-18.262"/>
		<circle fill="#FFFFFF" stroke="#D496A7" stroke-width="4" stroke-miterlimit="10" cx="396.554" cy="610.529" r="6.667"/>
	</g>
</g>
<g>
	<circle fill="#36D7B7" stroke="#FFFFFF" stroke-width="8" stroke-miterlimit="10" cx="649.265" cy="226.099" r="14.102"/>
	
		<line fill="none" stroke="#36D7B7" stroke-width="4" stroke-miterlimit="10" stroke-dasharray="18,8" x1="654" y1="226.778" x2="890" y2="226.778"/>
	<g>
		<circle fill="none" stroke="#DDDDDD" stroke-width="5" stroke-miterlimit="10" cx="930.933" cy="228.28" r="39.748"/>
		<g>
			<path fill="#36D7B7" d="M936.26,222.838c0,1.289-0.6,2.428-1.801,3.42c1.617,1.024,2.424,2.464,2.424,4.32
				c0,1.44-0.575,2.648-1.728,3.624c-1.151,0.976-2.663,1.464-4.536,1.464c-1.871,0-3.384-0.488-4.535-1.464
				c-1.152-0.976-1.729-2.184-1.729-3.624c0-1.856,0.809-3.296,2.424-4.32c-1.199-0.992-1.8-2.132-1.8-3.42
				c0-1.288,0.536-2.355,1.608-3.204s2.416-1.272,4.031-1.272c1.617,0,2.961,0.424,4.032,1.272
				C935.724,220.482,936.26,221.55,936.26,222.838z M934.076,230.482c0-0.879-0.353-1.56-1.057-2.04
				c-0.704-0.48-1.504-0.72-2.4-0.72c-0.896,0-1.695,0.24-2.4,0.72c-0.703,0.48-1.055,1.161-1.055,2.04
				c0,0.88,0.367,1.557,1.104,2.028c0.736,0.472,1.52,0.708,2.352,0.708s1.617-0.236,2.353-0.708
				C933.707,232.039,934.076,231.362,934.076,230.482z M933.644,223.078c0-0.712-0.3-1.308-0.899-1.788
				c-0.601-0.48-1.309-0.72-2.125-0.72s-1.523,0.24-2.123,0.72c-0.601,0.48-0.9,1.076-0.9,1.788s0.3,1.312,0.9,1.8
				c0.6,0.488,1.307,0.732,2.123,0.732s1.524-0.244,2.125-0.732C933.344,224.39,933.644,223.79,933.644,223.078z"/>
		</g>
		<path fill="none" stroke="#36D7B7" stroke-width="5" stroke-miterlimit="10" d="M930.934,268.028
			c21.952,0,39.747-17.795,39.747-39.748c-0.001-6.584-1.601-12.794-4.435-18.262"/>
		<circle fill="#FFFFFF" stroke="#36D7B7" stroke-width="4" stroke-miterlimit="10" cx="966.711" cy="209.78" r="6.667"/>
	</g>
</g>
<g>
	<rect y="61.778" fill="#F4F4F4" width="299" height="108"/>
	<line fill="none" stroke="#52B3D9" stroke-width="4" stroke-miterlimit="10" x1="297" y1="61.778" x2="297" y2="169.778"/>
</g>
<g>
	<path d="M70.429,108.707c1.021,0.854,1.533,2.17,1.533,3.948c0,1.778-0.521,3.08-1.564,3.906s-2.643,1.239-4.798,1.239h-2.604
		v4.305h-2.478v-14.679h5.04C67.783,107.425,69.407,107.853,70.429,108.707z M68.675,114.765c0.497-0.525,0.746-1.295,0.746-2.31
		s-0.315-1.732-0.945-2.152c-0.63-0.42-1.617-0.63-2.961-0.63h-2.52v5.88h2.877C67.244,115.553,68.178,115.29,68.675,114.765z"/>
	<path d="M86.599,112.192c0,2.422-1.057,3.948-3.171,4.578l3.843,5.334h-3.15l-3.507-4.935h-3.255v4.935h-2.478v-14.679h5.46
		c2.24,0,3.843,0.378,4.809,1.134C86.116,109.315,86.599,110.526,86.599,112.192z M83.302,114.271
		c0.504-0.434,0.756-1.13,0.756-2.089s-0.259-1.617-0.777-1.974c-0.518-0.357-1.442-0.536-2.772-0.536h-3.15v5.25h3.087
		C81.846,114.922,82.798,114.706,83.302,114.271z"/>
	<path d="M102.454,120.078c-1.484,1.449-3.318,2.173-5.502,2.173c-2.184,0-4.018-0.725-5.502-2.173
		c-1.484-1.449-2.226-3.255-2.226-5.418c0-2.163,0.742-3.969,2.226-5.418c1.484-1.449,3.318-2.174,5.502-2.174
		c2.184,0,4.018,0.725,5.502,2.174c1.484,1.449,2.226,3.255,2.226,5.418C104.68,116.823,103.938,118.629,102.454,120.078z
		 M100.637,110.891c-1.001-1.036-2.229-1.554-3.686-1.554s-2.685,0.518-3.686,1.554s-1.501,2.292-1.501,3.77s0.5,2.733,1.501,3.77
		s2.229,1.554,3.686,1.554s2.685-0.518,3.686-1.554s1.501-2.292,1.501-3.77S101.638,111.927,100.637,110.891z"/>
	<path d="M117.973,114.964h2.478v5.019c-1.386,1.526-3.367,2.289-5.943,2.289c-2.17,0-3.986-0.714-5.449-2.142
		c-1.463-1.428-2.195-3.234-2.195-5.418s0.746-4.004,2.237-5.46c1.491-1.456,3.293-2.184,5.407-2.184s3.871,0.616,5.271,1.848
		l-1.323,1.89c-0.574-0.49-1.152-0.83-1.732-1.019c-0.581-0.189-1.257-0.284-2.027-0.284c-1.484,0-2.73,0.48-3.738,1.438
		c-1.008,0.959-1.512,2.219-1.512,3.78s0.49,2.814,1.47,3.759s2.167,1.417,3.56,1.417c1.393,0,2.558-0.301,3.497-0.903V114.964z"/>
	<path d="M135.424,112.192c0,2.422-1.057,3.948-3.171,4.578l3.843,5.334h-3.15l-3.507-4.935h-3.255v4.935h-2.478v-14.679h5.46
		c2.24,0,3.843,0.378,4.809,1.134C134.941,109.315,135.424,110.526,135.424,112.192z M132.127,114.271
		c0.504-0.434,0.756-1.13,0.756-2.089s-0.259-1.617-0.777-1.974c-0.518-0.357-1.442-0.536-2.772-0.536h-3.15v5.25h3.087
		C130.671,114.922,131.623,114.706,132.127,114.271z"/>
	<path d="M141.073,118.766l-1.47,3.339h-2.646l6.468-14.679h2.646l6.468,14.679h-2.646l-1.47-3.339H141.073z M147.415,116.477
		l-2.667-6.048l-2.667,6.048H147.415z"/>
	<path d="M157.054,122.104h-2.478v-14.679h3.864l4.431,9.219l4.431-9.219h3.843v14.679h-2.478v-11.466l-5.124,10.185h-1.386
		l-5.103-10.185V122.104z"/>
	<path d="M177.696,122.104h-2.478v-14.679h3.864l4.431,9.219l4.431-9.219h3.843v14.679h-2.478v-11.466l-5.124,10.185h-1.386
		l-5.103-10.185V122.104z"/>
	<path d="M195.861,107.425h2.478v14.679h-2.478V107.425z"/>
	<path d="M213.417,107.425h2.478v14.679h-2.688l-8.316-10.71v10.71h-2.478v-14.679h2.478l8.526,10.962V107.425z"/>
	<path d="M230.133,114.964h2.478v5.019c-1.386,1.526-3.367,2.289-5.943,2.289c-2.17,0-3.986-0.714-5.449-2.142
		c-1.463-1.428-2.195-3.234-2.195-5.418s0.746-4.004,2.237-5.46c1.491-1.456,3.293-2.184,5.407-2.184s3.871,0.616,5.271,1.848
		l-1.323,1.89c-0.574-0.49-1.152-0.83-1.732-1.019c-0.581-0.189-1.257-0.284-2.027-0.284c-1.484,0-2.73,0.48-3.738,1.438
		c-1.008,0.959-1.512,2.219-1.512,3.78s0.49,2.814,1.47,3.759s2.167,1.417,3.56,1.417c1.393,0,2.558-0.301,3.497-0.903V114.964z"/>
</g>
<g>
	<rect y="303.778" fill="#F4F4F4" width="299" height="108"/>
	<line fill="none" stroke="#FF4271" stroke-width="4" stroke-miterlimit="10" x1="297" y1="303.778" x2="297" y2="411.778"/>
</g>
<g>
	<path d="M46.593,361.902l3.276-10.563h2.226l3.276,10.563l3.696-10.563h2.667l-5.124,14.679h-2.457l-3.087-10.059h-0.168
		l-3.087,10.059h-2.457l-5.124-14.679h2.667L46.593,361.902z"/>
	<path d="M74.334,351.339v2.331h-7.833v3.885h7.035v2.205h-7.035v3.927h8.085v2.33H64.023v-14.679H74.334z"/>
	<path d="M84.183,366.018h-6.426v-14.679h5.712c0.994,0,1.851,0.119,2.572,0.357c0.721,0.238,1.257,0.56,1.607,0.966
		c0.672,0.756,1.008,1.61,1.008,2.562c0,1.148-0.364,2.002-1.092,2.562c-0.266,0.196-0.448,0.318-0.546,0.368
		c-0.098,0.049-0.273,0.129-0.525,0.241c0.91,0.196,1.634,0.606,2.173,1.229c0.539,0.623,0.809,1.396,0.809,2.32
		c0,1.023-0.35,1.925-1.05,2.708C87.599,365.564,86.185,366.018,84.183,366.018z M80.235,357.43h3.15
		c1.792,0,2.688-0.609,2.688-1.827c0-0.7-0.217-1.204-0.651-1.512c-0.434-0.308-1.106-0.462-2.016-0.462h-3.171V357.43z
		 M80.235,363.729h3.885c0.91,0,1.606-0.143,2.089-0.43c0.483-0.287,0.725-0.83,0.725-1.628c0-1.302-1.043-1.953-3.129-1.953h-3.57
		V363.729z"/>
	<path d="M109.445,353.261c1.414,1.281,2.121,3.063,2.121,5.344c0,2.282-0.686,4.088-2.058,5.418s-3.472,1.994-6.3,1.994h-4.872
		v-14.679h5.04C106.008,351.339,108.031,351.98,109.445,353.261z M109.067,358.668c0-3.36-1.925-5.04-5.775-5.04h-2.478v10.06h2.751
		c1.778,0,3.139-0.424,4.084-1.271C108.595,361.57,109.067,360.321,109.067,358.668z"/>
	<path d="M125.069,351.339v2.331h-7.833v3.885h7.035v2.205h-7.035v3.927h8.085v2.33h-10.563v-14.679H125.069z"/>
	<path d="M135.191,366.018h-2.772l-5.901-14.679h2.772l4.515,10.962l4.515-10.962h2.772L135.191,366.018z"/>
	<path d="M153.503,351.339v2.331h-7.833v3.885h7.035v2.205h-7.035v3.927h8.085v2.33h-10.563v-14.679H153.503z"/>
	<path d="M156.926,366.018v-14.679h2.478v12.327h6.699v2.352H156.926z"/>
	<path d="M180.676,363.993c-1.484,1.448-3.318,2.173-5.502,2.173c-2.184,0-4.018-0.725-5.502-2.173
		c-1.484-1.45-2.226-3.256-2.226-5.418c0-2.163,0.742-3.969,2.226-5.418c1.484-1.449,3.318-2.174,5.502-2.174
		c2.184,0,4.018,0.725,5.502,2.174c1.484,1.449,2.226,3.255,2.226,5.418C182.902,360.737,182.16,362.543,180.676,363.993z
		 M178.86,354.805c-1.001-1.036-2.229-1.554-3.686-1.554s-2.685,0.518-3.686,1.554s-1.501,2.292-1.501,3.77s0.5,2.733,1.501,3.77
		c1.001,1.036,2.229,1.553,3.686,1.553s2.685-0.518,3.686-1.553c1.001-1.036,1.501-2.292,1.501-3.77S179.861,355.841,178.86,354.805
		z"/>
	<path d="M195.944,352.621c1.021,0.854,1.533,2.17,1.533,3.948c0,1.778-0.521,3.08-1.564,3.906s-2.643,1.239-4.798,1.239h-2.604
		v4.305h-2.478v-14.679h5.04C193.298,351.339,194.921,351.767,195.944,352.621z M194.19,358.679c0.497-0.525,0.746-1.295,0.746-2.31
		s-0.315-1.732-0.945-2.152c-0.63-0.42-1.617-0.63-2.961-0.63h-2.52v5.88h2.877C192.758,359.467,193.693,359.204,194.19,358.679z"/>
	<path d="M202.874,366.018h-2.478v-14.679h3.864l4.431,9.219l4.431-9.219h3.843v14.679h-2.478v-11.465l-5.124,10.185h-1.386
		l-5.103-10.185V366.018z"/>
	<path d="M231.349,351.339v2.331h-7.833v3.885h7.035v2.205h-7.035v3.927h8.085v2.33h-10.563v-14.679H231.349z"/>
	<path d="M245.776,351.339h2.478v14.679h-2.688l-8.316-10.709v10.709h-2.478v-14.679h2.478l8.526,10.962V351.339z"/>
	<path d="M257.872,353.607v12.411h-2.478v-12.411h-4.452v-2.268h11.382v2.268H257.872z"/>
</g>
<g>
	<rect y="579.778" fill="#F4F4F4" width="299" height="108"/>
	<line fill="none" stroke="#D496A7" stroke-width="4" stroke-miterlimit="10" x1="297" y1="579.778" x2="297" y2="687.778"/>
</g>
<g>
	<path d="M66.563,626.106v12.412h-2.478v-12.412h-4.452v-2.268h11.382v2.268H66.563z"/>
	<path d="M84.014,623.838v2.331h-7.833v3.886h7.035v2.205h-7.035v3.926h8.085v2.332H73.703v-14.68H84.014z"/>
	<path d="M89.516,635.178l-1.47,3.34h-2.646l6.468-14.68h2.646l6.468,14.68h-2.646l-1.47-3.34H89.516z M95.857,632.889l-2.667-6.047
		l-2.667,6.047H95.857z"/>
	<path d="M105.496,638.518h-2.478v-14.68h3.864l4.431,9.219l4.431-9.219h3.843v14.68h-2.478v-11.467l-5.124,10.186h-1.386
		l-5.103-10.186V638.518z"/>
	<path d="M129.415,638.518v-14.68h2.478v12.327h6.699v2.353H129.415z"/>
	<path d="M141.3,623.838h2.478v14.68H141.3V623.838z"/>
	<path d="M158.961,625.76c1.414,1.281,2.121,3.063,2.121,5.344c0,2.283-0.686,4.089-2.058,5.418c-1.372,1.331-3.472,1.996-6.3,1.996
		h-4.872v-14.68h5.04C155.524,623.838,157.547,624.479,158.961,625.76z M158.583,631.167c0-3.36-1.925-5.04-5.775-5.04h-2.478
		v10.059h2.751c1.778,0,3.139-0.423,4.084-1.27C158.11,634.069,158.583,632.82,158.583,631.167z"/>
	<path d="M174.585,623.838v2.331h-7.833v3.886h7.035v2.205h-7.035v3.926h8.085v2.332h-10.563v-14.68H174.585z"/>
	<path d="M189.726,628.606c0,2.422-1.057,3.947-3.171,4.578l3.843,5.334h-3.15l-3.507-4.936h-3.255v4.936h-2.478v-14.68h5.46
		c2.24,0,3.843,0.379,4.809,1.135C189.243,625.729,189.726,626.94,189.726,628.606z M186.429,630.684
		c0.504-0.434,0.756-1.13,0.756-2.089s-0.259-1.617-0.777-1.974c-0.518-0.357-1.442-0.536-2.772-0.536h-3.15v5.25h3.087
		C184.973,631.335,185.925,631.119,186.429,630.684z"/>
	<path d="M197.737,625.77c-0.721,0-1.313,0.147-1.774,0.441s-0.693,0.738-0.693,1.334c0,0.595,0.231,1.05,0.693,1.365
		c0.462,0.314,1.445,0.654,2.95,1.018c1.505,0.365,2.639,0.875,3.402,1.533c0.763,0.658,1.145,1.627,1.145,2.908
		s-0.483,2.32-1.449,3.119c-0.966,0.798-2.233,1.197-3.801,1.197c-2.296,0-4.333-0.791-6.111-2.373l1.554-1.869
		c1.484,1.288,3.024,1.932,4.62,1.932c0.798,0,1.431-0.172,1.9-0.515c0.469-0.343,0.704-0.798,0.704-1.364
		c0-0.567-0.221-1.008-0.662-1.324c-0.441-0.314-1.201-0.602-2.278-0.86c-1.079-0.259-1.897-0.497-2.457-0.714
		c-0.56-0.217-1.058-0.5-1.491-0.851c-0.868-0.657-1.302-1.666-1.302-3.024c0-1.357,0.493-2.404,1.48-3.139
		c0.987-0.735,2.208-1.104,3.665-1.104c0.938,0,1.869,0.154,2.793,0.463c0.924,0.308,1.722,0.742,2.394,1.302l-1.323,1.869
		c-0.434-0.392-1.022-0.714-1.764-0.966S198.458,625.77,197.737,625.77z"/>
	<path d="M206.526,638.518v-14.68h2.478v6.363h7.287v-6.363h2.478v14.68h-2.478v-6.006h-7.287v6.006H206.526z"/>
	<path d="M222.843,623.838h2.478v14.68h-2.478V623.838z"/>
	<path d="M239.307,625.12c1.021,0.854,1.533,2.17,1.533,3.947c0,1.779-0.521,3.08-1.564,3.906s-2.643,1.239-4.798,1.239h-2.604
		v4.306h-2.478v-14.68h5.04C236.661,623.838,238.284,624.266,239.307,625.12z M237.553,631.178c0.497-0.525,0.746-1.295,0.746-2.311
		c0-1.015-0.315-1.732-0.945-2.152s-1.617-0.63-2.961-0.63h-2.52v5.88h2.877C236.121,631.965,237.056,631.704,237.553,631.178z"/>
</g>
<g>
	<rect x="1001" y="168.778" fill="#F4F4F4" width="299" height="108"/>
	<line fill="none" stroke="#36D7B7" stroke-width="4" stroke-miterlimit="10" x1="1003" y1="168.778" x2="1003" y2="276.778"/>
</g>
<g>
	<rect x="1001" y="441.778" fill="#F4F4F4" width="299" height="108"/>
	<line fill="none" stroke="#BCAF50" stroke-width="4" stroke-miterlimit="10" x1="1003" y1="441.778" x2="1003" y2="549.778"/>
</g>
<g>
	<path d="M1121.629,224.237h2.478v5.019c-1.386,1.526-3.367,2.289-5.942,2.289c-2.171,0-3.987-0.714-5.45-2.142
		c-1.463-1.428-2.194-3.234-2.194-5.418s0.746-4.004,2.236-5.46c1.491-1.456,3.294-2.184,5.408-2.184
		c2.113,0,3.87,0.616,5.271,1.848l-1.323,1.89c-0.574-0.49-1.151-0.83-1.732-1.019s-1.257-0.284-2.026-0.284
		c-1.484,0-2.729,0.48-3.738,1.438c-1.008,0.959-1.512,2.219-1.512,3.78s0.49,2.814,1.47,3.759c0.98,0.945,2.167,1.417,3.56,1.417
		c1.394,0,2.559-0.301,3.497-0.903V224.237z"/>
	<path d="M1129.294,228.039l-1.47,3.339h-2.646l6.468-14.679h2.646l6.468,14.679h-2.646l-1.47-3.339H1129.294z M1135.636,225.75
		l-2.667-6.048l-2.667,6.048H1135.636z"/>
	<path d="M1145.274,231.377h-2.478v-14.679h3.864l4.431,9.219l4.431-9.219h3.844v14.679h-2.479v-11.466l-5.124,10.185h-1.386
		l-5.104-10.185V231.377z"/>
	<path d="M1173.75,216.698v2.331h-7.833v3.885h7.035v2.205h-7.035v3.927h8.085v2.331h-10.563v-14.679H1173.75z"/>
	<path d="M1181.614,218.63c-0.722,0-1.313,0.147-1.774,0.441s-0.693,0.739-0.693,1.333c0,0.595,0.231,1.05,0.693,1.365
		s1.445,0.654,2.95,1.019s2.639,0.875,3.402,1.533c0.763,0.658,1.145,1.627,1.145,2.909c0,1.281-0.483,2.32-1.449,3.119
		c-0.966,0.798-2.233,1.197-3.801,1.197c-2.297,0-4.333-0.791-6.111-2.373l1.554-1.869c1.484,1.289,3.024,1.932,4.62,1.932
		c0.798,0,1.432-0.171,1.9-0.515c0.47-0.343,0.704-0.798,0.704-1.365s-0.221-1.008-0.662-1.323c-0.44-0.315-1.2-0.602-2.278-0.861
		c-1.078-0.259-1.896-0.497-2.457-0.714c-0.56-0.217-1.057-0.5-1.49-0.851c-0.869-0.658-1.303-1.666-1.303-3.024
		s0.494-2.405,1.48-3.14c0.987-0.735,2.209-1.103,3.665-1.103c0.938,0,1.869,0.154,2.793,0.462c0.924,0.308,1.722,0.743,2.394,1.302
		l-1.323,1.869c-0.434-0.392-1.021-0.714-1.764-0.966S1182.335,218.63,1181.614,218.63z"/>
</g>
<g>
	<path d="M1033.148,492.544v11.819h-2.359v-11.819h-4.24v-2.16h10.84v2.16H1033.148z"/>
	<path d="M1049.769,490.384v2.22h-7.46v3.7h6.7v2.101h-6.7v3.739h7.7v2.22h-10.06v-13.979H1049.769z"/>
	<path d="M1055.009,501.184l-1.4,3.18h-2.52l6.16-13.979h2.52l6.16,13.979h-2.52l-1.4-3.18H1055.009z M1061.049,499.004l-2.54-5.76
		l-2.54,5.76H1061.049z"/>
	<path d="M1074.249,502.224c0.813,0,1.513-0.136,2.1-0.409s1.2-0.711,1.84-1.311l1.521,1.561c-1.48,1.639-3.277,2.459-5.391,2.459
		s-3.866-0.68-5.26-2.039c-1.394-1.361-2.09-3.08-2.09-5.16s0.71-3.813,2.13-5.201c1.42-1.386,3.213-2.079,5.38-2.079
		s3.977,0.8,5.431,2.399l-1.5,1.641c-0.667-0.641-1.297-1.087-1.891-1.34c-0.594-0.254-1.29-0.381-2.09-0.381
		c-1.413,0-2.6,0.457-3.56,1.371c-0.96,0.912-1.44,2.08-1.44,3.5s0.477,2.606,1.43,3.56S1072.941,502.224,1074.249,502.224z"/>
	<path d="M1082.589,504.364v-13.979h2.359v6.06h6.94v-6.06h2.359v13.979h-2.359v-5.72h-6.94v5.72H1082.589z"/>
	<path d="M1098.129,490.384h2.359v13.979h-2.359V490.384z"/>
	<path d="M1114.849,490.384h2.36v13.979h-2.561l-7.92-10.199v10.199h-2.359v-13.979h2.359l8.12,10.44V490.384z"/>
	<path d="M1130.769,497.565h2.36v4.779c-1.32,1.453-3.207,2.18-5.66,2.18c-2.067,0-3.797-0.68-5.19-2.039
		c-1.394-1.361-2.09-3.08-2.09-5.16s0.71-3.813,2.13-5.201c1.42-1.386,3.137-2.079,5.15-2.079c2.013,0,3.687,0.587,5.02,1.76
		l-1.26,1.8c-0.547-0.467-1.097-0.789-1.65-0.97c-0.553-0.181-1.196-0.271-1.93-0.271c-1.413,0-2.6,0.457-3.56,1.371
		c-0.96,0.912-1.44,2.113-1.44,3.6s0.467,2.68,1.4,3.58c0.933,0.9,2.063,1.35,3.39,1.35c1.326,0,2.437-0.287,3.33-0.859V497.565z"/>
	<path d="M1145.468,504.524c-1.307,0-2.42-0.363-3.34-1.09s-1.38-1.723-1.38-2.99c0-1.506,1.093-2.846,3.279-4.02
		c-0.547-0.627-0.93-1.141-1.149-1.54c-0.221-0.399-0.33-0.907-0.33-1.521c0-1.066,0.393-1.887,1.18-2.459
		c0.786-0.574,1.713-0.86,2.78-0.86c1.066,0,1.973,0.273,2.72,0.819c0.747,0.547,1.12,1.314,1.12,2.301c0,1.32-1.067,2.566-3.2,3.74
		c1.066,1.307,1.934,2.307,2.601,3c0.413-0.613,0.732-1.327,0.96-2.141l1.64,1.16c-0.347,0.92-0.74,1.727-1.18,2.42
		c0.533,0.547,1.213,1.207,2.04,1.98l-1.5,1.399l-1.841-1.819C1148.694,503.985,1147.228,504.524,1145.468,504.524z
		 M1143.728,502.014c0.507,0.38,1.18,0.57,2.021,0.57c0.84,0,1.732-0.387,2.68-1.16c-1.347-1.413-2.414-2.6-3.2-3.561
		c-1.507,0.814-2.26,1.707-2.26,2.681C1142.968,501.144,1143.221,501.634,1143.728,502.014z M1146.498,491.825
		c-0.447,0-0.848,0.14-1.2,0.42c-0.354,0.279-0.53,0.606-0.53,0.979c0,0.374,0.09,0.71,0.27,1.011
		c0.181,0.299,0.49,0.717,0.931,1.25c1.507-0.747,2.26-1.44,2.26-2.08c0-0.533-0.177-0.931-0.53-1.19
		C1147.344,491.954,1146.944,491.825,1146.498,491.825z"/>
	<path d="M1163.427,504.364h-2.359v-13.979h3.68l4.22,8.78l4.22-8.78h3.66v13.979h-2.359v-10.92l-4.88,9.7h-1.32l-4.86-9.7V504.364z
		"/>
	<path d="M1190.547,490.384v2.22h-7.46v3.7h6.7v2.101h-6.7v3.739h7.7v2.22h-10.06v-13.979H1190.547z"/>
	<path d="M1204.287,490.384h2.36v13.979h-2.561l-7.92-10.199v10.199h-2.359v-13.979h2.359l8.12,10.44V490.384z"/>
	<path d="M1215.807,492.544v11.819h-2.359v-11.819h-4.24v-2.16h10.84v2.16H1215.807z"/>
	<path d="M1233.927,502.434c-1.413,1.381-3.159,2.07-5.239,2.07s-3.827-0.689-5.24-2.07c-1.414-1.38-2.12-3.1-2.12-5.16
		c0-2.06,0.706-3.779,2.12-5.16c1.413-1.379,3.16-2.069,5.24-2.069s3.826,0.69,5.239,2.069c1.413,1.381,2.12,3.101,2.12,5.16
		C1236.047,499.334,1235.34,501.054,1233.927,502.434z M1232.197,493.684c-0.953-0.986-2.124-1.48-3.51-1.48
		c-1.388,0-2.558,0.494-3.511,1.48s-1.43,2.184-1.43,3.59c0,1.407,0.477,2.604,1.43,3.59c0.953,0.987,2.123,1.48,3.511,1.48
		c1.386,0,2.557-0.493,3.51-1.48c0.953-0.986,1.43-2.183,1.43-3.59C1233.627,495.868,1233.15,494.67,1232.197,493.684z"/>
	<path d="M1250.187,494.924c0,2.307-1.007,3.76-3.02,4.359l3.66,5.08h-3l-3.34-4.699h-3.101v4.699h-2.359v-13.979h5.199
		c2.134,0,3.66,0.36,4.58,1.08S1250.187,493.338,1250.187,494.924z M1247.047,496.905c0.48-0.414,0.72-1.077,0.72-1.99
		c0-0.914-0.246-1.541-0.739-1.881c-0.494-0.34-1.374-0.51-2.641-0.51h-3v5h2.94C1245.66,497.524,1246.567,497.318,1247.047,496.905
		z"/>
	<path d="M1253.587,490.384h2.359v13.979h-2.359V490.384z"/>
	<path d="M1270.307,490.384h2.36v13.979h-2.561l-7.92-10.199v10.199h-2.359v-13.979h2.359l8.12,10.44V490.384z"/>
	<path d="M1286.227,497.565h2.36v4.779c-1.32,1.453-3.207,2.18-5.66,2.18c-2.067,0-3.797-0.68-5.19-2.039
		c-1.394-1.361-2.09-3.08-2.09-5.16s0.71-3.813,2.13-5.201c1.42-1.386,3.137-2.079,5.15-2.079c2.013,0,3.687,0.587,5.02,1.76
		l-1.26,1.8c-0.547-0.467-1.097-0.789-1.65-0.97c-0.553-0.181-1.196-0.271-1.93-0.271c-1.413,0-2.6,0.457-3.56,1.371
		c-0.96,0.912-1.44,2.113-1.44,3.6s0.467,2.68,1.4,3.58c0.933,0.9,2.063,1.35,3.39,1.35c1.326,0,2.437-0.287,3.33-0.859V497.565z"/>
</g>
</svg>
