<?xml version="1.0" encoding="utf-8"?>
<!-- Generator: Adobe Illustrator 16.0.0, SVG Export Plug-In . SVG Version: 6.00 Build 0)  -->
<!DOCTYPE svg PUBLIC "-//W3C//DTD SVG 1.1//EN" "http://www.w3.org/Graphics/SVG/1.1/DTD/svg11.dtd">
<svg version="1.1" id="Layer_1" xmlns="http://www.w3.org/2000/svg" xmlns:xlink="http://www.w3.org/1999/xlink" x="0px" y="0px"
	 width="504.306px" height="411.561px" viewBox="0 0 504.306 411.561" enable-background="new 0 0 504.306 411.561"
	 xml:space="preserve">
<g>
	<circle opacity="0.2" fill="#52B3D9" cx="462.228" cy="42.077" r="42.077"/>
	<circle fill="#FFFFFF" stroke="#52B3D9" stroke-width="3" stroke-miterlimit="10" cx="462.228" cy="42.077" r="36.37"/>
	<g>
		<g>
			<path fill="#52B3D9" d="M467.063,26.71l-1.328-0.365c-0.172-0.057-0.34-0.039-0.503,0.054c-0.164,0.093-0.276,0.232-0.333,0.418
				l-7.987,27.647c-0.058,0.186-0.04,0.36,0.054,0.525c0.092,0.164,0.231,0.274,0.418,0.333l1.327,0.363
				c0.173,0.058,0.338,0.041,0.503-0.054c0.165-0.092,0.275-0.231,0.332-0.417l7.988-27.648c0.057-0.185,0.039-0.36-0.054-0.525
				C467.387,26.878,467.247,26.768,467.063,26.71z"/>
			<path fill="#52B3D9" d="M455.091,32.107c0-0.185-0.071-0.349-0.215-0.493l-1.069-1.07c-0.143-0.144-0.309-0.214-0.493-0.214
				s-0.351,0.071-0.493,0.214l-9.979,9.979c-0.144,0.143-0.215,0.308-0.215,0.492c0,0.187,0.071,0.351,0.215,0.494l9.979,9.979
				c0.143,0.143,0.308,0.214,0.493,0.214c0.185,0,0.351-0.072,0.493-0.214l1.069-1.07c0.144-0.143,0.215-0.308,0.215-0.494
				c0-0.184-0.071-0.349-0.215-0.491l-8.415-8.417l8.415-8.416C455.02,32.458,455.091,32.292,455.091,32.107z"/>
			<path fill="#52B3D9" d="M481.604,40.523l-9.98-9.979c-0.143-0.144-0.307-0.215-0.491-0.215c-0.187,0-0.351,0.071-0.493,0.215
				l-1.07,1.07c-0.144,0.144-0.214,0.307-0.214,0.493c0,0.185,0.07,0.351,0.214,0.493l8.416,8.416l-8.416,8.417
				c-0.144,0.143-0.214,0.308-0.214,0.491c0,0.186,0.07,0.351,0.214,0.494l1.07,1.07c0.143,0.143,0.307,0.214,0.493,0.214
				c0.185,0,0.349-0.072,0.491-0.214l9.98-9.979c0.143-0.143,0.214-0.307,0.214-0.494C481.817,40.83,481.746,40.666,481.604,40.523z
				"/>
		</g>
	</g>
</g>
<g>
	<circle opacity="0.2" fill="#FF4271" cx="462.228" cy="369.485" r="42.077"/>
	<circle fill="#FFFFFF" stroke="#FF4271" stroke-width="3" stroke-miterlimit="10" cx="461.76" cy="368.778" r="36.37"/>
	<g>
		<path fill="#FF4271" d="M466.852,359.346c-0.456,0.458-0.458,1.199,0,1.655c3.072,3.075,3.072,8.08-0.005,11.158
			c-0.456,0.456-0.456,1.198,0,1.655c0.229,0.229,0.529,0.342,0.827,0.342c0.301,0,0.6-0.113,0.829-0.342
			c3.986-3.99,3.989-10.48,0.003-14.469C468.051,358.89,467.311,358.89,466.852,359.346z"/>
		<path fill="#FF4271" d="M462.479,362.702c-0.457,0.459-0.458,1.199-0.001,1.655c1.225,1.226,1.225,3.222,0,4.448
			c-0.457,0.456-0.457,1.196,0,1.654c0.229,0.228,0.527,0.342,0.828,0.342c0.298,0,0.598-0.114,0.827-0.342
			c2.137-2.139,2.137-5.618,0-7.756C463.677,362.246,462.937,362.246,462.479,362.702z"/>
		<path fill="#FF4271" d="M473.686,354.166c-0.457-0.458-1.198-0.458-1.655-0.003c-0.457,0.458-0.457,1.199,0,1.655
			c5.93,5.933,5.927,15.588-0.006,21.522c-0.456,0.457-0.456,1.197,0,1.654c0.229,0.229,0.529,0.344,0.829,0.344
			c0.299,0,0.598-0.116,0.827-0.344C480.523,372.147,480.525,361.009,473.686,354.166z"/>
		<path fill="#FF4271" d="M452.704,374.125c3.008-0.207,5.392-2.721,5.392-5.784c0-3.198-2.6-5.8-5.795-5.8
			c-3.194,0-5.795,2.602-5.795,5.8c0,3.063,2.387,5.577,5.395,5.784c-2.254,0.088-4.236,0.901-5.62,2.316
			c-1.42,1.453-2.141,3.467-2.085,5.819c0.012,0.636,0.533,1.145,1.169,1.145h13.873c0.637,0,1.156-0.509,1.169-1.145
			c0.056-2.354-0.668-4.366-2.086-5.82C456.937,375.026,454.955,374.213,452.704,374.125z M448.847,368.341
			c0-1.908,1.55-3.462,3.454-3.462c1.905,0,3.456,1.554,3.456,3.462c0,1.907-1.551,3.462-3.456,3.462
			C450.396,371.803,448.847,370.249,448.847,368.341z M446.588,381.064c0.151-1.212,0.61-2.211,1.366-2.987
			c1.021-1.044,2.563-1.619,4.347-1.619c1.782,0,3.325,0.575,4.345,1.617c0.757,0.776,1.216,1.777,1.366,2.989H446.588z"/>
	</g>
</g>
<g>
	<circle opacity="0.2" fill="#36D7B7" cx="462.228" cy="205.781" r="41.602"/>
	<circle fill="#FFFFFF" stroke="#36D7B7" stroke-width="3" stroke-miterlimit="10" cx="462.821" cy="205.57" r="36.37"/>
	<path fill="#36D7B7" d="M445.362,220.505c-0.098,0-0.194-0.019-0.29-0.058c-0.395-0.16-0.584-0.609-0.423-1.002l2.123-5.234
		c0.915-2.253,2.535-5.229,6.096-5.373c0.029-0.004,0.061-0.006,0.092-0.006h3.175c0.031,0,0.063,0.002,0.092,0.006
		c3.562,0.144,5.182,3.12,6.096,5.373l0.274,0.676l5.707-5.277c0.313-0.287,0.801-0.27,1.089,0.044
		c0.288,0.312,0.27,0.799-0.043,1.087l-6.525,6.031c-0.185,0.172-0.444,0.24-0.69,0.188c-0.246-0.057-0.45-0.23-0.546-0.463
		l-0.691-1.707c-1.101-2.709-2.37-4.059-4.148-4.354l-0.453,2.161l0.605,5.448c0.029,0.262-0.076,0.521-0.282,0.685l-1.35,1.085
		c-0.136,0.109-0.306,0.17-0.481,0.17h-0.479c-0.175,0-0.344-0.061-0.48-0.17l-1.351-1.085c-0.205-0.163-0.312-0.423-0.282-0.685
		l0.605-5.448l-0.452-2.161c-1.779,0.295-3.049,1.645-4.147,4.354l-2.124,5.234C445.953,220.325,445.665,220.505,445.362,220.505z
		 M453.771,217.795l0.776,0.623l0.777-0.623l-0.498-4.467h-0.559L453.771,217.795z M454.204,211.788h0.688l0.296-1.414h-1.281
		L454.204,211.788z M478.029,218.047h-11.703c-0.426,0-0.77-0.344-0.77-0.771c0-0.423,0.344-0.77,0.77-0.77h10.934V194.34h-30.518
		v16.202c0,0.426-0.345,0.77-0.77,0.77c-0.426,0-0.77-0.344-0.77-0.77V193.57c0-0.425,0.344-0.77,0.77-0.77h32.057
		c0.425,0,0.771,0.344,0.771,0.77v23.706C478.801,217.704,478.454,218.047,478.029,218.047z M454.547,207.422
		c-2.336,0-4.235-1.9-4.235-4.235c0-2.337,1.899-4.237,4.235-4.237c0.281,0,0.556,0.027,0.821,0.08
		c0.016,0.002,0.03,0.004,0.045,0.008c1.923,0.4,3.371,2.107,3.371,4.148C458.784,205.522,456.884,207.422,454.547,207.422z
		 M453.172,200.866c-0.79,0.473-1.32,1.333-1.32,2.321c0,1.487,1.21,2.694,2.695,2.694c1.486,0,2.697-1.207,2.697-2.694
		c0-1.126-0.693-2.093-1.674-2.497c-0.352,0.464-0.796,0.853-1.308,1.139c-0.372,0.209-0.841,0.077-1.049-0.292
		C453.094,201.323,453.086,201.078,453.172,200.866z"/>
</g>
<g>
	
		<circle fill="#52B3D9" fill-opacity="0.3" stroke="#52B3D9" stroke-width="2" stroke-miterlimit="10" cx="96.821" cy="120.067" r="95.821"/>
	<g>
		<path d="M23.683,115.625c0.71,0.594,1.066,1.509,1.066,2.745c0,1.236-0.363,2.142-1.088,2.716s-1.837,0.861-3.336,0.861h-1.811
			v2.993h-1.723v-10.206h3.504C21.843,114.735,22.972,115.032,23.683,115.625z M22.463,119.838c0.346-0.365,0.519-0.9,0.519-1.606
			c0-0.706-0.219-1.205-0.657-1.497s-1.124-0.438-2.059-0.438h-1.752v4.088h2C21.468,120.386,22.118,120.203,22.463,119.838z"/>
		<path d="M34.925,118.049c0,1.684-0.735,2.745-2.205,3.183l2.672,3.708h-2.19l-2.438-3.431h-2.263v3.431h-1.723v-10.206h3.796
			c1.557,0,2.672,0.263,3.344,0.789C34.589,116.049,34.925,116.891,34.925,118.049z M32.633,119.495
			c0.351-0.302,0.526-0.786,0.526-1.453c0-0.667-0.18-1.124-0.541-1.373c-0.36-0.248-1.002-0.372-1.927-0.372h-2.19v3.65h2.146
			C31.621,119.947,32.283,119.797,32.633,119.495z"/>
		<path d="M45.949,123.532c-1.032,1.008-2.307,1.511-3.825,1.511s-2.794-0.503-3.825-1.511c-1.032-1.007-1.548-2.263-1.548-3.767
			s0.516-2.76,1.548-3.767c1.031-1.007,2.307-1.511,3.825-1.511s2.793,0.504,3.825,1.511s1.548,2.263,1.548,3.767
			S46.98,122.524,45.949,123.532z M44.686,117.144c-0.696-0.72-1.55-1.08-2.563-1.08c-1.013,0-1.867,0.36-2.563,1.08
			c-0.696,0.721-1.044,1.594-1.044,2.621s0.348,1.9,1.044,2.621c0.696,0.721,1.55,1.081,2.563,1.081c1.012,0,1.866-0.36,2.563-1.081
			c0.696-0.72,1.044-1.594,1.044-2.621S45.382,117.865,44.686,117.144z"/>
		<path d="M56.739,119.977h1.723v3.49c-0.964,1.061-2.341,1.591-4.132,1.591c-1.509,0-2.771-0.496-3.789-1.489
			c-1.018-0.993-1.526-2.249-1.526-3.767c0-1.518,0.518-2.784,1.555-3.796c1.037-1.012,2.29-1.519,3.76-1.519
			s2.691,0.429,3.665,1.285l-0.92,1.314c-0.399-0.341-0.801-0.577-1.205-0.708c-0.404-0.131-0.874-0.197-1.409-0.197
			c-1.032,0-1.898,0.333-2.599,1c-0.701,0.667-1.051,1.543-1.051,2.628c0,1.085,0.34,1.957,1.022,2.614
			c0.681,0.657,1.506,0.985,2.475,0.985c0.969,0,1.779-0.209,2.431-0.628V119.977z"/>
		<path d="M68.872,118.049c0,1.684-0.735,2.745-2.205,3.183l2.672,3.708h-2.19l-2.438-3.431h-2.263v3.431h-1.723v-10.206h3.796
			c1.557,0,2.672,0.263,3.344,0.789C68.536,116.049,68.872,116.891,68.872,118.049z M66.58,119.495
			c0.351-0.302,0.526-0.786,0.526-1.453c0-0.667-0.18-1.124-0.541-1.373c-0.36-0.248-1.002-0.372-1.927-0.372h-2.19v3.65h2.146
			C65.567,119.947,66.229,119.797,66.58,119.495z"/>
		<path d="M72.8,122.62l-1.022,2.321h-1.84l4.497-10.206h1.84l4.497,10.206h-1.839l-1.022-2.321H72.8z M77.209,121.028l-1.854-4.205
			l-1.854,4.205H77.209z"/>
		<path d="M83.911,124.941h-1.723v-10.206h2.686l3.081,6.41l3.081-6.41h2.672v10.206h-1.723v-7.972l-3.563,7.082h-0.964
			l-3.548-7.082V124.941z"/>
		<path d="M98.263,124.941H96.54v-10.206h2.686l3.081,6.41l3.081-6.41h2.672v10.206h-1.723v-7.972l-3.563,7.082h-0.964l-3.548-7.082
			V124.941z"/>
		<path d="M110.892,114.735h1.723v10.206h-1.723V114.735z"/>
		<path d="M123.098,114.735h1.723v10.206h-1.869l-5.782-7.446v7.446h-1.723v-10.206h1.723l5.928,7.622V114.735z"/>
		<path d="M134.72,119.977h1.723v3.49c-0.964,1.061-2.341,1.591-4.132,1.591c-1.509,0-2.771-0.496-3.789-1.489
			c-1.018-0.993-1.526-2.249-1.526-3.767c0-1.518,0.518-2.784,1.555-3.796c1.037-1.012,2.29-1.519,3.76-1.519
			s2.691,0.429,3.665,1.285l-0.92,1.314c-0.399-0.341-0.801-0.577-1.205-0.708c-0.404-0.131-0.874-0.197-1.409-0.197
			c-1.032,0-1.898,0.333-2.599,1c-0.701,0.667-1.051,1.543-1.051,2.628c0,1.085,0.34,1.957,1.022,2.614
			c0.681,0.657,1.506,0.985,2.475,0.985c0.969,0,1.779-0.209,2.431-0.628V119.977z"/>
	</g>
</g>
<g>
	
		<circle fill="#36D7B7" fill-opacity="0.3" stroke="#36D7B7" stroke-width="2" stroke-miterlimit="10" cx="204.624" cy="196.946" r="95.821"/>
	<g>
		<path d="M197.808,190.732v1.621h-5.446v2.701h4.891v1.533h-4.891v2.73h5.621v1.621h-7.344v-10.206H197.808z"/>
		<path d="M207.912,192.068c0.983,0.891,1.475,2.129,1.475,3.716c0,1.586-0.477,2.842-1.431,3.767
			c-0.954,0.925-2.414,1.387-4.38,1.387h-3.387v-10.206h3.504C205.522,190.732,206.928,191.178,207.912,192.068z M207.648,195.828
			c0-2.336-1.338-3.504-4.015-3.504h-1.723v6.994h1.913c1.236,0,2.183-0.294,2.84-0.883
			C207.32,197.846,207.648,196.977,207.648,195.828z"/>
		<path d="M213.897,198.603c0.467,0.545,1.1,0.817,1.898,0.817c0.798,0,1.431-0.272,1.898-0.817
			c0.467-0.545,0.701-1.285,0.701-2.219v-5.651h1.723v5.724c0,1.47-0.404,2.602-1.211,3.395c-0.808,0.793-1.845,1.19-3.11,1.19
			c-1.265,0-2.302-0.396-3.11-1.19c-0.808-0.793-1.212-1.925-1.212-3.395v-5.724h1.723v5.651
			C213.197,197.317,213.43,198.057,213.897,198.603z"/>
		<path d="M227.476,199.376c0.594,0,1.105-0.1,1.533-0.299c0.428-0.199,0.876-0.518,1.343-0.956l1.11,1.139
			c-1.081,1.197-2.393,1.796-3.935,1.796c-1.543,0-2.823-0.496-3.84-1.489c-1.018-0.993-1.526-2.249-1.526-3.767
			c0-1.518,0.518-2.784,1.555-3.796c1.037-1.012,2.346-1.519,3.928-1.519c1.582,0,2.903,0.584,3.964,1.752l-1.095,1.197
			c-0.487-0.467-0.947-0.793-1.38-0.978s-0.942-0.277-1.526-0.277c-1.032,0-1.898,0.333-2.599,1
			c-0.701,0.667-1.051,1.519-1.051,2.555s0.348,1.903,1.044,2.599C225.697,199.028,226.522,199.376,227.476,199.376z"/>
		<path d="M235.01,198.617l-1.022,2.321h-1.84l4.497-10.206h1.84l4.497,10.206h-1.839l-1.022-2.321H235.01z M239.419,197.025
			l-1.854-4.205l-1.854,4.205H239.419z"/>
		<path d="M247.45,192.31v8.629h-1.723v-8.629h-3.095v-1.577h7.914v1.577H247.45z"/>
		<path d="M252.415,190.732h1.723v10.206h-1.723V190.732z"/>
		<path d="M265.511,199.529c-1.032,1.008-2.307,1.511-3.825,1.511s-2.794-0.503-3.825-1.511c-1.032-1.007-1.548-2.263-1.548-3.767
			s0.516-2.76,1.548-3.767c1.031-1.007,2.307-1.511,3.825-1.511s2.793,0.504,3.825,1.511s1.548,2.263,1.548,3.767
			S266.543,198.522,265.511,199.529z M264.248,193.142c-0.696-0.72-1.551-1.08-2.563-1.08c-1.013,0-1.867,0.36-2.563,1.08
			c-0.695,0.721-1.044,1.594-1.044,2.621s0.349,1.9,1.044,2.621c0.695,0.721,1.55,1.081,2.563,1.081c1.012,0,1.866-0.36,2.563-1.081
			c0.695-0.72,1.044-1.594,1.044-2.621S264.943,193.862,264.248,193.142z"/>
		<path d="M276.885,190.732h1.723v10.206h-1.869l-5.781-7.446v7.446h-1.723v-10.206h1.723l5.928,7.622V190.732z"/>
	</g>
</g>
<circle fill="#FF4271" fill-opacity="0.3" stroke="#FF4271" stroke-width="2" stroke-miterlimit="10" cx="96.821" cy="284.219" r="95.82"/>
<g>
	<path d="M77.592,270.904c0.71,0.594,1.066,1.509,1.066,2.745s-0.363,2.142-1.088,2.716s-1.837,0.861-3.336,0.861h-1.811v2.993
		h-1.723v-10.206h3.504C75.753,270.013,76.882,270.31,77.592,270.904z M76.373,275.117c0.346-0.365,0.519-0.9,0.519-1.606
		s-0.219-1.204-0.657-1.496c-0.438-0.293-1.124-0.438-2.059-0.438h-1.752v4.088h2C75.378,275.664,76.028,275.481,76.373,275.117z"/>
	<path d="M82.98,277.883c0.467,0.545,1.1,0.817,1.898,0.817c0.798,0,1.431-0.272,1.898-0.817s0.701-1.285,0.701-2.22v-5.65H89.2
		v5.724c0,1.47-0.404,2.602-1.211,3.395c-0.808,0.794-1.845,1.19-3.11,1.19c-1.265,0-2.302-0.396-3.11-1.19
		c-0.808-0.793-1.212-1.925-1.212-3.395v-5.724h1.723v5.65C82.279,276.598,82.513,277.338,82.98,277.883z"/>
	<path d="M96.369,280.219h-4.468v-10.206h3.971c0.691,0,1.287,0.083,1.789,0.248c0.501,0.166,0.874,0.39,1.117,0.672
		c0.467,0.525,0.701,1.119,0.701,1.781c0,0.799-0.253,1.393-0.759,1.781c-0.185,0.137-0.312,0.222-0.38,0.256
		c-0.068,0.034-0.189,0.09-0.365,0.168c0.632,0.136,1.136,0.421,1.511,0.854c0.375,0.434,0.562,0.972,0.562,1.613
		c0,0.711-0.244,1.339-0.73,1.884C98.744,279.903,97.761,280.219,96.369,280.219z M93.624,274.248h2.19
		c1.246,0,1.869-0.424,1.869-1.271c0-0.486-0.151-0.837-0.453-1.051c-0.302-0.214-0.769-0.321-1.402-0.321h-2.205V274.248z
		 M93.624,278.627h2.701c0.632,0,1.117-0.1,1.453-0.299s0.504-0.577,0.504-1.132c0-0.905-0.726-1.357-2.176-1.357h-2.482V278.627z"
		/>
	<path d="M102.209,280.219v-10.206h1.723v8.57h4.658v1.636H102.209z"/>
	<path d="M110.473,270.013h1.723v10.206h-1.723V270.013z"/>
	<path d="M119.686,278.657c0.594,0,1.105-0.1,1.533-0.299s0.876-0.519,1.343-0.957l1.11,1.14c-1.081,1.197-2.393,1.796-3.935,1.796
		c-1.543,0-2.823-0.497-3.84-1.489c-1.018-0.993-1.526-2.249-1.526-3.768s0.518-2.783,1.555-3.796
		c1.037-1.013,2.346-1.519,3.928-1.519c1.582,0,2.903,0.584,3.964,1.752l-1.095,1.197c-0.487-0.467-0.947-0.793-1.38-0.979
		c-0.433-0.185-0.942-0.277-1.526-0.277c-1.032,0-1.898,0.334-2.599,1.001c-0.701,0.666-1.051,1.518-1.051,2.555
		c0,1.036,0.348,1.903,1.044,2.599C117.907,278.309,118.731,278.657,119.686,278.657z"/>
	<path d="M62.496,288.877c-0.501,0-0.913,0.102-1.234,0.307c-0.321,0.204-0.482,0.514-0.482,0.927c0,0.414,0.161,0.73,0.482,0.949
		s1.005,0.455,2.051,0.708s1.835,0.608,2.365,1.065c0.531,0.458,0.796,1.132,0.796,2.022s-0.336,1.613-1.007,2.168
		c-0.672,0.556-1.553,0.833-2.643,0.833c-1.597,0-3.013-0.55-4.249-1.65l1.081-1.3c1.032,0.896,2.103,1.344,3.212,1.344
		c0.555,0,0.995-0.119,1.321-0.357s0.489-0.555,0.489-0.949s-0.153-0.701-0.46-0.92s-0.834-0.418-1.584-0.599
		c-0.75-0.18-1.319-0.346-1.708-0.496c-0.389-0.151-0.735-0.349-1.037-0.592c-0.604-0.457-0.905-1.158-0.905-2.103
		s0.343-1.672,1.029-2.183c0.687-0.511,1.536-0.767,2.548-0.767c0.652,0,1.3,0.107,1.942,0.321c0.643,0.214,1.197,0.516,1.665,0.905
		l-0.92,1.3c-0.302-0.272-0.71-0.497-1.226-0.672C63.505,288.964,62.997,288.877,62.496,288.877z"/>
	<path d="M75.497,288.424c0.71,0.594,1.066,1.509,1.066,2.745s-0.363,2.142-1.088,2.716s-1.837,0.861-3.336,0.861h-1.811v2.993
		h-1.723v-10.206h3.504C73.658,287.534,74.787,287.831,75.497,288.424z M74.278,292.637c0.346-0.365,0.519-0.9,0.519-1.606
		s-0.219-1.204-0.657-1.496c-0.438-0.293-1.124-0.438-2.059-0.438h-1.752v4.088h2C73.283,293.184,73.933,293.001,74.278,292.637z"/>
	<path d="M85.761,287.534v1.621h-5.446v2.701h4.891v1.533h-4.891v2.729h5.621v1.621h-7.344v-10.206H85.761z"/>
	<path d="M89.587,295.418l-1.022,2.321h-1.84l4.497-10.206h1.84l4.497,10.206h-1.839l-1.022-2.321H89.587z M93.996,293.827
		l-1.854-4.205l-1.854,4.205H93.996z"/>
	<path d="M98.975,287.534h1.723v4.979l4.672-4.979h2.19l-4.103,4.468l4.162,5.738h-2.044l-3.387-4.468l-1.489,1.606v2.861h-1.723
		V287.534z"/>
	<path d="M109.254,287.534h1.723v10.206h-1.723V287.534z"/>
	<path d="M121.459,287.534h1.723v10.206h-1.869l-5.782-7.446v7.446h-1.723v-10.206h1.723l5.928,7.622V287.534z"/>
	<path d="M133.082,292.776h1.723v3.489c-0.964,1.061-2.341,1.592-4.132,1.592c-1.509,0-2.771-0.497-3.789-1.489
		c-1.018-0.993-1.526-2.249-1.526-3.768s0.518-2.783,1.555-3.796c1.037-1.013,2.29-1.519,3.76-1.519s2.691,0.429,3.665,1.285
		l-0.92,1.313c-0.399-0.34-0.801-0.576-1.205-0.708c-0.404-0.131-0.874-0.197-1.409-0.197c-1.032,0-1.898,0.334-2.599,1.001
		c-0.701,0.666-1.051,1.542-1.051,2.628c0,1.085,0.34,1.956,1.022,2.613c0.681,0.657,1.506,0.985,2.475,0.985
		c0.969,0,1.779-0.209,2.431-0.628V292.776z"/>
</g>
<path fill="none" stroke="#FF4271" stroke-width="2" stroke-miterlimit="10" d="M426.252,376.836"/>
<path fill="none" stroke="#52B3D9" stroke-width="2" stroke-miterlimit="10" d="M428.376,27.463"/>
<line fill="none" stroke="#36D7B7" stroke-width="2" stroke-miterlimit="10" stroke-dasharray="4,4" x1="300.295" y1="203.862" x2="425.295" y2="203.862"/>
<line fill="none" stroke="#52B3D9" stroke-width="2" stroke-miterlimit="10" stroke-dasharray="4,4" x1="158.295" y1="45.862" x2="424.295" y2="45.862"/>
<line fill="none" stroke="#FF4271" stroke-width="2" stroke-miterlimit="10" stroke-dasharray="4,4" x1="130.295" y1="375.862" x2="425.295" y2="375.862"/>
<g>
	<path fill="none" stroke="#36D7B7" stroke-width="2" stroke-miterlimit="10" d="M108.822,198.862"/>
</g>
<circle opacity="0.3" fill="#FFFFFF" cx="120.128" cy="201.362" r="6.5"/>
<circle fill="#FFFFFF" cx="120.128" cy="201.362" r="4.5"/>
</svg>
